<?xml version="1.0" standalone="no"?>
<!DOCTYPE svg PUBLIC "-//W3C//DTD SVG 20010904//EN"
 "http://www.w3.org/TR/2001/REC-SVG-20010904/DTD/svg10.dtd">
<svg version="1.0" xmlns="http://www.w3.org/2000/svg"
 width="512.000000pt" height="512.000000pt" viewBox="0 0 512.000000 512.000000"
 preserveAspectRatio="xMidYMid meet">
<metadata>
Created by potrace 1.14, written by Peter Selinger 2001-2017
</metadata>
<g transform="translate(0.000000,512.000000) scale(0.100000,-0.100000)"
fill="#000000" stroke="none">
<path d="M600 5105 c-36 -8 -78 -21 -95 -29 -16 -9 -35 -16 -42 -16 -20 0
-141 -74 -195 -119 -121 -102 -195 -219 -245 -386 -17 -57 -18 -165 -18 -1985
0 -1059 3 -1938 7 -1955 29 -122 56 -189 112 -274 80 -120 172 -201 301 -262
168 -81 -21 -74 2120 -74 1051 0 1931 3 1956 8 291 47 540 290 603 587 21 98
21 3823 0 3921 -53 248 -227 453 -464 547 -135 54 -45 51 -2085 50 -1510 0
-1903 -3 -1955 -13z"/>
</g>
</svg>
