<svg xmlns:xlink="http://www.w3.org/1999/xlink" xmlns="http://www.w3.org/2000/svg" width="240" height="240" viewBox="0 0 240 240" fill="none" id="svg-1604297782_28884">
<path d="M189.472 111.985C191.733 110.127 195.676 108.316 197.697 106.295C199.473 104.519 202.355 102.338 203.387 100.018C203.954 98.7418 205.748 97.4361 206.727 96.3995C207.465 95.6177 207.863 94.2659 208.675 93.6165C210.406 92.2318 212.281 88.3822 213.282 86.3805C215.769 81.4075 216.746 75.4771 216.746 69.9605C216.746 67.5258 216.46 65.1716 216.189 63.0028C215.893 60.6382 213.01 59.267 211.458 57.715C208.116 54.3731 200.702 52.2256 196.027 53.6641C189.199 55.7651 182.92 60.5869 177.999 65.5076C173.798 69.7089 168.912 73.1139 164.548 77.0418C162.507 78.8788 154.962 82.3875 154.962 85.2673C154.962 73.2323 159.971 62.1113 159.971 50.2014C159.971 45.9571 160.527 41.4852 160.527 37.1211C160.527 32.547 161.063 29.4099 156.909 27.1021C153.794 25.3712 149.406 26.4515 146.055 26.8238C140.825 27.4049 135.5 34.039 132.14 37.3994C128.537 41.002 126.509 47.3004 124.224 51.8713C123.176 53.9677 122.399 56.2684 121.286 58.2723C120.55 59.5971 118.781 62.6746 118.781 64.1168C118.781 57.5069 117.623 52.3174 114.76 46.3045C112.098 40.7144 109.235 34.7743 105.978 29.4825C101.785 22.6689 97.4923 13.4644 88.1665 13.4644C83.7634 13.4644 79.5947 16.3504 76.6014 19.4635C73.8782 22.2956 73.138 26.3835 73.138 30.1628V43.6452C73.138 49.6199 74.8089 57.1404 74.8089 63.0032C74.6335 61.4253 70.4218 57.0634 69.1191 55.8909C67.0612 54.0389 64.7507 51.5924 62.316 50.2011C57.5195 47.4602 52.2586 44.224 46.669 47.4181C41.3498 50.4576 41.6668 58.6803 41.9688 64.1164C42.2196 68.6305 47.7118 75.4932 51.9878 76.9185C49.051 76.9185 47.0182 74.698 44.321 73.6991C41.4609 72.6398 38.5749 72.3172 35.7245 71.4726C33.6952 70.8714 30.7342 70.7923 28.6122 70.7923C26.1615 70.7923 23.9877 70.2357 21.4999 70.2357C17.6118 70.2357 13.2163 70.9464 13.0271 75.6781C12.8611 79.828 13.4077 83.9669 16.0884 87.2433C22.6747 95.2932 31.2966 100.938 39.7444 106.972C44.3089 110.232 50.064 113.719 55.3296 115.6C57.6651 116.434 57.9473 116.553 60.0879 117.492C62.1413 118.393 64.2602 119.362 66.0431 120.254C53.284 120.254 42.3914 123.895 31.3684 130.226C28.3298 131.972 26.2473 135.832 25.1113 139.121C23.9739 142.413 23.4903 148.506 26.0093 151.4C28.8629 154.677 31.2989 157.118 35.2791 158.946C38.6094 160.477 43.7694 160.683 47.5036 160.683C51.4887 160.683 55.7084 161.051 59.5253 160.174C60.9455 159.848 63.1907 159.06 65.6092 158.361C56.4992 161.822 50.3233 171.719 48.6043 181.058C46.6755 191.537 50.2899 210.514 63.4436 211.881L63.5389 211.891C69.1506 212.475 74.4186 213.023 79.1727 209.37C83.6272 205.948 87.1777 202.441 90.6438 198.039C93.9759 193.807 96.5954 188.447 99.0326 183.632C101.221 179.31 103.932 174.293 105.425 169.869C105.425 184.151 103.453 198.898 106.012 212.976C107.631 221.878 118.231 230.367 127.132 225.654C135.239 221.362 137.565 210.241 138.852 201.874C139.643 196.733 141.903 191.728 142.161 186.568C142.246 184.877 143.275 175.991 144.387 175.435C144.387 182.591 149.611 190.676 153.879 196.277C157.998 201.684 162.893 206.188 167.64 210.935C173.857 217.153 185.063 220.904 192.533 214.584C200.207 208.09 198.315 196.863 196.151 188.207C195.018 183.677 192.212 179.557 190.152 175.435C189.017 173.166 182.792 165.973 182.792 165.973C182.792 165.973 192.512 173.874 196.986 177.354C200.065 179.749 204.809 181.559 208.675 181.559C215.322 181.559 222.731 178.825 223.95 171.51C224.59 167.673 224.733 165.56 222.992 162.078C220.911 157.917 218.238 154.356 214.952 151.069C212.082 148.2 208.468 146.973 205.18 144.823L205.147 144.801C203.233 143.55 200.073 141.483 197.821 141.483C202.831 141.483 207.869 142.345 212.849 142.345C217.301 142.345 219.05 141.084 222.756 138.751C228.157 135.351 227.237 122.43 224.69 117.518C223.254 114.75 219.528 113.328 217.349 111.461C214.454 108.981 210.836 107.818 207.291 107.601C200.38 107.178 196.336 108.286 189.472 111.985Z" fill="#F32317"></path>
<path d="M189.472 111.985L190.754 114.364C189.528 115.024 188.002 114.646 187.227 113.49C186.452 112.335 186.681 110.779 187.756 109.896L189.472 111.985ZM203.387 100.018L200.917 98.9197L200.917 98.9197L203.387 100.018ZM206.727 96.3995L204.761 94.5436L204.761 94.5436L206.727 96.3995ZM208.675 93.6165L210.363 95.7272L210.363 95.7272L208.675 93.6165ZM216.189 63.0028L218.871 62.6675L218.871 62.6675L216.189 63.0028ZM211.458 57.715L213.369 55.8037L213.369 55.8037L211.458 57.715ZM196.027 53.6641L195.232 51.0806L195.232 51.0806L196.027 53.6641ZM164.548 77.0418L166.356 79.051L166.356 79.051L164.548 77.0418ZM157.665 85.2673C157.665 86.7602 156.455 87.9703 154.962 87.9703C153.469 87.9703 152.259 86.7602 152.259 85.2673H157.665ZM156.909 27.1021L155.597 29.465L155.597 29.4649L156.909 27.1021ZM146.055 26.8238L145.757 24.1373L145.757 24.1373L146.055 26.8238ZM132.14 37.3994L130.229 35.488L130.229 35.488L132.14 37.3994ZM121.286 58.2723L123.649 59.585L123.649 59.585L121.286 58.2723ZM121.484 64.1168C121.484 65.6096 120.274 66.8198 118.781 66.8198C117.288 66.8198 116.078 65.6096 116.078 64.1168H121.484ZM114.76 46.3045L112.32 47.4667L112.32 47.4667L114.76 46.3045ZM105.978 29.4825L103.676 30.8991L103.676 30.8991L105.978 29.4825ZM76.6014 19.4635L78.5498 21.337L78.5498 21.337L76.6014 19.4635ZM74.8089 63.0032H77.5119C77.5119 64.438 76.3909 65.6228 74.9584 65.7021C73.5258 65.7815 72.2808 64.7277 72.1224 63.3017L74.8089 63.0032ZM69.1191 55.8909L70.9273 53.8818L70.9273 53.8818L69.1191 55.8909ZM62.316 50.2011L63.6571 47.8542L63.6571 47.8542L62.316 50.2011ZM46.669 47.4181L48.0101 49.765L48.0101 49.765L46.669 47.4181ZM41.9688 64.1164L39.2699 64.2664L39.2699 64.2664L41.9688 64.1164ZM51.9878 76.9185L52.8426 74.3542C54.1003 74.7734 54.8683 76.0429 54.6559 77.3515C54.4436 78.6601 53.3135 79.6215 51.9878 79.6215V76.9185ZM44.321 73.6991L43.3822 76.2339L43.3822 76.2339L44.321 73.6991ZM35.7245 71.4726L36.4924 68.881L36.4924 68.881L35.7245 71.4726ZM13.0271 75.6781L15.728 75.7862L15.728 75.7862L13.0271 75.6781ZM16.0884 87.2433L18.1805 85.5316L18.1805 85.5316L16.0884 87.2433ZM39.7444 106.972L41.3156 104.773L41.3156 104.773L39.7444 106.972ZM55.3296 115.6L54.4204 118.145L54.4204 118.145L55.3296 115.6ZM60.0879 117.492L61.1742 115.017L61.1743 115.017L60.0879 117.492ZM66.0431 120.254L67.2519 117.836C68.3732 118.397 68.9619 119.655 68.6738 120.875C68.3858 122.095 67.2967 122.957 66.0431 122.957V120.254ZM31.3684 130.226L32.7146 132.57L32.7146 132.57L31.3684 130.226ZM25.1113 139.121L22.5564 138.238L22.5564 138.238L25.1113 139.121ZM26.0093 151.4L28.0481 149.625L28.0481 149.625L26.0093 151.4ZM35.2791 158.946L36.4076 156.49L36.4076 156.49L35.2791 158.946ZM59.5253 160.174L58.9201 157.54L58.9201 157.54L59.5253 160.174ZM72.5951 154.375C74.0879 154.375 75.2981 155.585 75.2981 157.078C75.2981 158.571 74.0879 159.781 72.5951 159.781V154.375ZM105.425 169.869L102.863 169.005C103.287 167.751 104.556 166.987 105.863 167.202C107.169 167.416 108.128 168.545 108.128 169.869H105.425ZM106.012 212.976L103.353 213.459L106.012 212.976ZM127.132 225.654L125.868 223.265L125.868 223.265L127.132 225.654ZM138.852 201.874L136.181 201.463L136.181 201.463L138.852 201.874ZM142.161 186.568L144.861 186.702L144.861 186.702L142.161 186.568ZM144.387 175.435L143.179 173.018C144.017 172.599 145.012 172.643 145.809 173.136C146.605 173.628 147.09 174.498 147.09 175.435H144.387ZM153.879 196.277L156.029 194.639L156.029 194.639L153.879 196.277ZM167.64 210.935L169.551 209.024L169.551 209.024L167.64 210.935ZM192.533 214.584L194.279 216.647L194.279 216.647L192.533 214.584ZM196.151 188.207L198.773 187.551L198.773 187.551L196.151 188.207ZM190.152 175.435L192.569 174.227L192.569 174.227L190.152 175.435ZM182.792 165.973L180.748 167.742L184.497 163.876L182.792 165.973ZM196.986 177.354L195.326 179.488L195.326 179.488L196.986 177.354ZM223.95 171.51L226.617 171.954L226.617 171.954L223.95 171.51ZM222.992 162.078L225.41 160.869L225.41 160.869L222.992 162.078ZM214.952 151.069L216.863 149.158L216.863 149.158L214.952 151.069ZM205.18 144.823L206.659 142.561L206.659 142.561L205.18 144.823ZM205.147 144.801L203.668 147.064L203.668 147.064L205.147 144.801ZM197.821 144.186C196.328 144.186 195.118 142.976 195.118 141.483C195.118 139.991 196.328 138.78 197.821 138.78V144.186ZM222.756 138.751L224.196 141.038L224.196 141.038L222.756 138.751ZM224.69 117.518L222.29 118.763L222.29 118.763L224.69 117.518ZM217.349 111.461L215.591 113.514L215.591 113.514L217.349 111.461ZM207.291 107.601L207.456 104.903L207.456 104.903L207.291 107.601ZM48.6043 181.058L45.9459 180.569L45.9459 180.569L48.6043 181.058ZM63.4436 211.881L63.7232 209.193L63.7232 209.193L63.4436 211.881ZM63.5389 211.891L63.8185 209.203L63.8185 209.203L63.5389 211.891ZM79.1727 209.37L77.5259 207.227L77.5259 207.227L79.1727 209.37ZM90.6438 198.039L92.7675 199.711L92.7675 199.711L90.6438 198.039ZM99.0326 183.632L101.444 184.853L101.444 184.853L99.0326 183.632ZM187.756 109.896C189.068 108.819 190.834 107.777 192.256 106.9C193.82 105.936 195.035 105.134 195.786 104.384L199.608 108.206C198.338 109.477 196.571 110.591 195.093 111.502C193.473 112.501 192.137 113.294 191.187 114.074L187.756 109.896ZM195.786 104.384C196.281 103.889 196.841 103.377 197.366 102.897C197.907 102.401 198.429 101.923 198.923 101.436C199.954 100.419 200.619 99.5902 200.917 98.9197L205.857 101.115C205.124 102.766 203.831 104.188 202.72 105.285C202.142 105.855 201.545 106.4 201.015 106.886C200.467 107.387 200.002 107.813 199.608 108.206L195.786 104.384ZM200.917 98.9197C201.437 97.7495 202.388 96.7849 203.031 96.1681C203.886 95.348 204.306 95.0257 204.761 94.5436L208.692 98.2555C208.372 98.5937 208.011 98.9288 207.697 99.2164C207.359 99.526 207.064 99.7906 206.773 100.07C206.487 100.344 206.262 100.579 206.093 100.783C206.01 100.883 205.951 100.963 205.911 101.025C205.87 101.087 205.856 101.117 205.857 101.115L200.917 98.9197ZM204.761 94.5436C204.849 94.4509 204.948 94.2837 205.322 93.6244C205.584 93.1634 206.115 92.2029 206.986 91.5058L210.363 95.7272C210.423 95.6795 210.349 95.7195 210.024 96.2923C209.903 96.5059 209.715 96.8468 209.522 97.1559C209.323 97.4765 209.051 97.8756 208.692 98.2555L204.761 94.5436ZM206.986 91.5058C207.422 91.1572 208.109 90.2494 208.919 88.8653C209.675 87.5724 210.351 86.198 210.865 85.1717L215.7 87.5893C215.212 88.5647 214.45 90.116 213.586 91.5945C212.774 92.9817 211.659 94.691 210.363 95.7272L206.986 91.5058ZM210.865 85.1717C213.109 80.6834 214.043 75.1997 214.043 69.9605H219.449C219.449 75.7546 218.429 82.1317 215.7 87.5893L210.865 85.1717ZM214.043 69.9605C214.043 67.7163 213.779 65.5186 213.507 63.3381L218.871 62.6675C219.141 64.8246 219.449 67.3353 219.449 69.9605H214.043ZM213.507 63.3381C213.489 63.1931 213.361 62.8282 212.515 62.089C212.114 61.7381 211.683 61.4111 211.15 60.9968C210.662 60.6166 210.067 60.1472 209.546 59.6263L213.369 55.8037C213.624 56.0588 213.972 56.3428 214.47 56.7301C214.924 57.0833 215.523 57.5379 216.074 58.0194C217.132 58.9449 218.594 60.4479 218.871 62.6675L213.507 63.3381ZM209.546 59.6263C208.312 58.3919 206.1 57.2017 203.535 56.5056C200.962 55.8075 198.498 55.732 196.822 56.2476L195.232 51.0806C198.232 50.1577 201.812 50.4366 204.95 51.2882C208.096 52.1417 211.262 53.6962 213.369 55.8037L209.546 59.6263ZM196.822 56.2476C190.6 58.1622 184.693 62.6366 179.911 67.4189L176.088 63.5962C181.147 58.5372 187.798 53.3681 195.232 51.0806L196.822 56.2476ZM179.911 67.4189C177.706 69.6234 175.343 71.5981 173.042 73.4728C170.71 75.3724 168.474 77.1448 166.356 79.051L162.74 75.0327C164.986 73.0109 167.375 71.1169 169.627 69.2816C171.91 67.4215 174.091 65.593 176.088 63.5962L179.911 67.4189ZM166.356 79.051C165.646 79.6903 164.585 80.3767 163.639 80.978C162.604 81.6363 161.537 82.2948 160.517 82.9936C159.488 83.698 158.661 84.3422 158.113 84.9068C157.47 85.5707 157.665 85.6623 157.665 85.2673H152.259C152.259 83.4324 153.397 82.0054 154.232 81.1441C155.163 80.1836 156.349 79.2957 157.462 78.5334C158.583 77.7654 159.785 77.0223 160.739 76.4161C161.782 75.7529 162.429 75.3118 162.74 75.0327L166.356 79.051ZM152.259 85.2673C152.259 78.9134 153.582 72.8442 154.825 67.1145C156.087 61.293 157.268 55.8184 157.268 50.2014H162.674C162.674 56.4943 161.35 62.5352 160.108 68.2604C158.846 74.0774 157.665 79.5862 157.665 85.2673H152.259ZM157.268 50.2014C157.268 47.9784 157.413 45.7117 157.551 43.5351C157.691 41.3271 157.824 39.2033 157.824 37.1211H163.23C163.23 39.4029 163.085 41.6971 162.947 43.8773C162.806 46.0887 162.674 48.1802 162.674 50.2014H157.268ZM157.824 37.1211C157.824 34.5225 157.935 33.1207 157.644 31.8782C157.443 31.0196 157.048 30.2712 155.597 29.465L158.222 24.7392C160.925 26.2408 162.338 28.2148 162.908 30.6452C163.387 32.6917 163.23 35.1455 163.23 37.1211H157.824ZM155.597 29.4649C154.701 28.9677 153.439 28.7827 151.712 28.8736C149.875 28.9703 148.345 29.289 146.354 29.5103L145.757 24.1373C147.116 23.9862 149.456 23.5787 151.428 23.4749C153.513 23.3653 156.002 23.5056 158.222 24.7392L155.597 29.4649ZM146.354 29.5103C144.642 29.7005 142.551 30.9799 140.199 33.084C137.842 35.1917 135.946 37.4165 134.051 39.3107L130.229 35.488C131.695 34.0218 134.141 31.2494 136.594 29.0547C139.052 26.8564 142.239 24.5281 145.757 24.1373L146.354 29.5103ZM134.051 39.3107C132.588 40.7745 131.34 42.9043 130.126 45.4395C129.527 46.6904 128.966 47.9742 128.392 49.2776C127.827 50.5612 127.247 51.8699 126.641 53.0801L121.806 50.6624C122.344 49.5873 122.874 48.3946 123.444 47.099C124.006 45.8234 124.606 44.4504 125.25 43.1049C126.522 40.4476 128.09 37.6268 130.229 35.488L134.051 39.3107ZM126.641 53.0801C126.163 54.0364 125.747 55.0398 125.265 56.1675C124.801 57.2559 124.281 58.4479 123.649 59.585L118.923 56.9596C119.405 56.0928 119.829 55.1325 120.293 54.0454C120.74 52.9977 121.236 51.8026 121.806 50.6624L126.641 53.0801ZM123.649 59.585C123.263 60.2807 122.686 61.2949 122.196 62.3182C121.952 62.8277 121.754 63.2876 121.623 63.666C121.474 64.0979 121.484 64.2163 121.484 64.1168H116.078C116.078 63.2961 116.31 62.489 116.515 61.8969C116.739 61.2513 117.03 60.5887 117.32 59.9829C117.898 58.7757 118.574 57.5888 118.923 56.9596L123.649 59.585ZM116.078 64.1168C116.078 57.9063 115.009 53.114 112.32 47.4667L117.201 45.1424C120.238 51.5208 121.484 57.1076 121.484 64.1168H116.078ZM112.32 47.4667C109.651 41.8627 106.845 36.0495 103.676 30.8991L108.28 28.0658C111.624 33.4991 114.545 39.5661 117.201 45.1424L112.32 47.4667ZM103.676 30.8991C101.446 27.2749 99.528 23.6253 96.9642 20.6999C94.5082 17.8974 91.7845 16.1675 88.1665 16.1675V10.7614C93.8742 10.7614 97.9599 13.6337 101.03 17.1368C103.992 20.5171 106.318 24.8765 108.28 28.0658L103.676 30.8991ZM88.1665 16.1675C84.8775 16.1675 81.3754 18.3983 78.5498 21.337L74.6529 17.59C77.814 14.3025 82.6492 10.7614 88.1665 10.7614V16.1675ZM78.5498 21.337C76.5581 23.4084 75.841 26.6171 75.841 30.1628H70.435C70.435 26.1498 71.1983 21.1828 74.6529 17.59L78.5498 21.337ZM75.841 30.1628V43.6452H70.435V30.1628H75.841ZM75.841 43.6452C75.841 46.4327 76.2329 49.6306 76.6558 53.0326C77.0677 56.3457 77.5119 59.8706 77.5119 63.0032H72.1058C72.1058 60.2729 71.7146 57.1062 71.291 53.6996C70.8786 50.382 70.435 46.8323 70.435 43.6452H75.841ZM72.1224 63.3017C72.1513 63.5619 72.2232 63.6502 72.1435 63.4887C72.0822 63.3645 71.9702 63.1713 71.7914 62.9074C71.4345 62.3807 70.926 61.7397 70.3403 61.061C69.1657 59.6998 67.866 58.3997 67.3108 57.9001L70.9273 53.8818C71.6749 54.5546 73.1324 56.0217 74.4332 57.5291C75.0852 58.2847 75.744 59.1033 76.2668 59.8748C76.5278 60.2601 76.7838 60.6757 76.9915 61.0966C77.1808 61.4802 77.4226 62.05 77.4954 62.7047L72.1224 63.3017ZM67.3108 57.9001C66.7695 57.4129 66.2149 56.8897 65.6787 56.3855C65.1335 55.8728 64.599 55.372 64.0587 54.8896C62.9648 53.913 61.9452 53.1025 60.9749 52.548L63.6571 47.8542C65.1215 48.691 66.4745 49.7993 67.659 50.8568C68.2579 51.3915 68.8391 51.9365 69.3819 52.447C69.9338 52.9658 70.4397 53.4429 70.9273 53.8818L67.3108 57.9001ZM60.9749 52.548C58.4732 51.1185 56.2741 49.8241 54.0421 49.1815C51.9581 48.5816 50.0308 48.6103 48.0101 49.765L45.328 45.0712C48.8969 43.0318 52.3948 43.0816 55.5377 43.9865C58.5327 44.8487 61.3623 46.5429 63.6571 47.8542L60.9749 52.548ZM48.0101 49.765C46.371 50.7016 45.3625 52.5543 44.8731 55.3368C44.3865 58.1033 44.5152 61.2224 44.6677 63.9665L39.2699 64.2664C39.1203 61.5744 38.9395 57.864 39.5488 54.4003C40.1552 50.9525 41.6479 47.1741 45.328 45.0712L48.0101 49.765ZM44.6677 63.9665C44.7474 65.4012 45.782 67.7082 47.5911 70.0017C49.3919 72.2847 51.4314 73.8838 52.8426 74.3542L51.133 79.4828C48.2682 78.5279 45.4236 75.9829 43.3465 73.3498C41.2778 70.7271 39.441 67.3457 39.2699 64.2664L44.6677 63.9665ZM51.9878 79.6215C49.8093 79.6215 48.0675 78.7842 46.7423 78.041C45.2576 77.2083 44.4663 76.6354 43.3822 76.2339L45.2598 71.1643C46.8729 71.7618 48.4467 72.7986 49.3868 73.3258C50.4865 73.9426 51.2295 74.2155 51.9878 74.2155V79.6215ZM43.3822 76.2339C42.1355 75.7721 40.8507 75.4588 39.4333 75.1441C38.0627 74.8399 36.4983 74.5211 34.9566 74.0643L36.4924 68.881C37.8011 69.2687 39.1048 69.5335 40.6049 69.8665C42.0581 70.1891 43.6465 70.5668 45.2598 71.1643L43.3822 76.2339ZM34.9566 74.0643C33.3597 73.5912 30.7839 73.4954 28.6122 73.4954V68.0893C30.6845 68.0893 34.0308 68.1516 36.4924 68.881L34.9566 74.0643ZM28.6122 73.4954C27.2001 73.4954 25.8868 73.3343 24.7482 73.1979C23.5689 73.0565 22.5584 72.9388 21.4999 72.9388V67.5327C22.9292 67.5327 24.2495 67.6933 25.3917 67.8302C26.5747 67.972 27.5736 68.0893 28.6122 68.0893V73.4954ZM21.4999 72.9388C19.6224 72.9388 18.0721 73.1288 17.0425 73.6211C16.5764 73.844 16.2956 74.0931 16.1169 74.355C15.9433 74.6094 15.7581 75.0331 15.728 75.7862L10.3262 75.5701C10.3907 73.9573 10.8259 72.5178 11.6512 71.3081C12.4714 70.1059 13.5679 69.2902 14.7104 68.7439C16.8979 67.698 19.4894 67.5327 21.4999 67.5327V72.9388ZM15.728 75.7862C15.5715 79.6964 16.1247 83.019 18.1805 85.5316L13.9964 88.955C10.6907 84.9147 10.1506 79.9596 10.3262 75.5701L15.728 75.7862ZM18.1805 85.5316C24.4812 93.2325 32.7237 98.6355 41.3156 104.773L38.1733 109.172C29.8694 103.24 20.8682 97.3539 13.9964 88.955L18.1805 85.5316ZM41.3156 104.773C45.7919 107.97 51.3128 111.295 56.2387 113.054L54.4204 118.145C48.8152 116.143 42.826 112.495 38.1733 109.172L41.3156 104.773ZM56.2387 113.054C58.6389 113.911 58.9803 114.054 61.1742 115.017L59.0016 119.967C56.9144 119.051 56.6913 118.956 54.4204 118.145L56.2387 113.054ZM61.1743 115.017C63.2475 115.927 65.4121 116.916 67.2519 117.836L64.8343 122.671C63.1083 121.808 61.0352 120.86 59.0016 119.967L61.1743 115.017ZM66.0431 122.957C53.8609 122.957 43.4293 126.416 32.7146 132.57L30.0222 127.882C41.3536 121.374 52.7071 117.551 66.0431 117.551V122.957ZM32.7146 132.57C30.5594 133.808 28.7505 136.865 27.6662 140.003L22.5564 138.238C23.7442 134.8 26.1003 130.135 30.0222 127.882L32.7146 132.57ZM27.6662 140.003C27.2053 141.338 26.8467 143.364 26.8915 145.349C26.9382 147.42 27.4083 148.89 28.0481 149.625L23.9706 153.174C22.0913 151.016 21.5437 147.993 21.4868 145.471C21.428 142.863 21.88 140.196 22.5564 138.238L27.6662 140.003ZM28.0481 149.625C30.827 152.817 32.9575 154.905 36.4076 156.49L34.1505 161.403C29.6404 159.33 26.8988 156.538 23.9706 153.174L28.0481 149.625ZM36.4076 156.49C37.6874 157.078 39.4774 157.472 41.5403 157.702C43.5673 157.929 45.6759 157.98 47.5036 157.98V163.386C45.5971 163.386 43.2586 163.334 40.9396 163.075C38.6563 162.82 36.2011 162.345 34.1505 161.403L36.4076 156.49ZM47.5036 157.98C51.8358 157.98 55.5003 158.326 58.9201 157.54L60.1305 162.809C55.9165 163.777 51.1415 163.386 47.5036 163.386V157.98ZM58.9201 157.54C60.2711 157.229 62.1687 156.542 64.8585 155.765L66.3599 160.958C64.2126 161.579 61.6199 162.467 60.1305 162.809L58.9201 157.54ZM64.8585 155.765C67.2411 155.076 70.093 154.375 72.5951 154.375V159.781C70.9216 159.781 68.7095 160.279 66.3599 160.958L64.8585 155.765ZM108.128 169.869C108.128 177.014 107.629 184.531 107.461 191.564C107.289 198.733 107.441 205.723 108.672 212.492L103.353 213.459C102.024 206.151 101.882 198.729 102.056 191.435C102.234 184.004 102.722 177.007 102.722 169.869H108.128ZM108.672 212.492C109.335 216.139 111.912 219.883 115.342 222.172C118.733 224.435 122.534 225.03 125.868 223.265L128.397 228.043C122.83 230.991 116.879 229.697 112.341 226.669C107.841 223.666 104.308 218.715 103.353 213.459L108.672 212.492ZM125.868 223.265C129.133 221.537 131.409 218.341 133.042 214.283C134.674 210.228 135.542 205.618 136.181 201.463L141.524 202.285C140.876 206.498 139.937 211.632 138.057 216.301C136.179 220.968 133.239 225.48 128.397 228.043L125.868 223.265ZM136.181 201.463C136.606 198.696 137.43 195.956 138.1 193.513C138.793 190.985 139.348 188.692 139.461 186.433L144.861 186.702C144.716 189.603 144.012 192.393 143.313 194.943C142.591 197.578 141.889 199.912 141.524 202.285L136.181 201.463ZM139.461 186.433C139.51 185.453 139.804 182.702 140.221 180.142C140.43 178.858 140.683 177.535 140.973 176.464C141.116 175.937 141.291 175.382 141.511 174.895C141.62 174.652 141.772 174.353 141.981 174.061C142.167 173.802 142.545 173.334 143.179 173.018L145.596 177.853C146.09 177.606 146.331 177.273 146.379 177.205C146.45 177.105 146.466 177.057 146.441 177.113C146.391 177.224 146.302 177.468 146.191 177.879C145.973 178.683 145.755 179.792 145.557 181.01C145.159 183.453 144.896 185.991 144.861 186.702L139.461 186.433ZM147.09 175.435C147.09 178.402 148.189 181.768 149.942 185.214C151.677 188.625 153.943 191.901 156.029 194.639L151.729 197.916C149.547 195.052 147.067 191.485 145.124 187.665C143.197 183.878 141.684 179.624 141.684 175.435H147.09ZM156.029 194.639C160.004 199.857 164.697 204.17 169.551 209.024L165.728 212.846C161.088 208.206 155.992 203.511 151.729 197.916L156.029 194.639ZM169.551 209.024C172.315 211.787 176.204 214.002 180.16 214.813C184.077 215.616 187.837 215.016 190.787 212.52L194.279 216.647C189.759 220.471 184.181 221.156 179.074 220.109C174.004 219.07 169.182 216.3 165.728 212.846L169.551 209.024ZM190.787 212.52C193.868 209.913 195.137 206.308 195.331 202.082C195.527 197.799 194.601 193.152 193.528 188.862L198.773 187.551C199.865 191.919 200.966 197.212 200.731 202.33C200.494 207.506 198.871 212.761 194.279 216.647L190.787 212.52ZM193.528 188.862C193.039 186.904 192.168 184.962 191.102 182.917C190.141 181.074 188.729 178.634 187.734 176.644L192.569 174.227C193.635 176.358 194.655 178.039 195.896 180.418C197.032 182.597 198.13 184.98 198.773 187.551L193.528 188.862ZM187.734 176.644C187.572 176.321 187.111 175.624 186.358 174.618C185.647 173.668 184.789 172.589 183.951 171.562C183.116 170.537 182.314 169.581 181.72 168.88C181.423 168.529 181.179 168.244 181.009 168.046C180.925 167.947 180.859 167.87 180.814 167.819C180.792 167.793 180.775 167.773 180.764 167.76C180.758 167.754 180.754 167.749 180.752 167.746C180.75 167.745 180.749 167.743 180.749 167.743C180.748 167.742 180.748 167.742 180.748 167.742C180.748 167.742 180.748 167.742 180.748 167.742C180.748 167.742 180.748 167.742 182.792 165.973C184.836 164.204 184.836 164.204 184.836 164.204C184.836 164.204 184.836 164.205 184.836 164.205C184.837 164.205 184.837 164.205 184.837 164.206C184.838 164.207 184.84 164.209 184.841 164.21C184.845 164.214 184.849 164.22 184.856 164.227C184.868 164.241 184.886 164.263 184.91 164.29C184.957 164.345 185.026 164.425 185.114 164.527C185.289 164.732 185.54 165.026 185.845 165.385C186.453 166.103 187.278 167.087 188.141 168.145C189.001 169.199 189.912 170.344 190.687 171.38C191.421 172.361 192.163 173.415 192.569 174.227L187.734 176.644ZM182.792 165.973C184.497 163.876 184.497 163.876 184.497 163.876C184.497 163.876 184.497 163.876 184.497 163.876C184.498 163.876 184.498 163.876 184.499 163.877C184.5 163.878 184.501 163.879 184.504 163.881C184.508 163.885 184.515 163.891 184.525 163.898C184.543 163.913 184.57 163.935 184.606 163.965C184.679 164.023 184.785 164.11 184.922 164.221C185.196 164.443 185.592 164.765 186.082 165.162C187.062 165.956 188.415 167.051 189.908 168.254C192.899 170.666 196.43 173.497 198.645 175.22L195.326 179.488C193.068 177.731 189.502 174.872 186.514 172.463C185.018 171.256 183.661 170.158 182.679 169.362C182.187 168.964 181.79 168.641 181.515 168.418C181.377 168.306 181.27 168.22 181.198 168.161C181.162 168.131 181.134 168.109 181.115 168.094C181.106 168.086 181.099 168.08 181.094 168.076C181.092 168.074 181.09 168.073 181.089 168.072C181.088 168.072 181.088 168.071 181.087 168.071C181.087 168.071 181.087 168.071 181.087 168.071C181.087 168.071 181.087 168.071 182.792 165.973ZM198.645 175.22C201.313 177.295 205.486 178.856 208.675 178.856V184.263C204.133 184.263 198.817 182.203 195.326 179.488L198.645 175.22ZM208.675 178.856C211.674 178.856 214.698 178.232 217.021 176.923C219.271 175.655 220.831 173.783 221.284 171.065L226.617 171.954C225.85 176.552 223.096 179.705 219.675 181.633C216.327 183.52 212.322 184.263 208.675 184.263V178.856ZM221.284 171.065C221.604 169.147 221.745 167.943 221.667 166.851C221.596 165.835 221.322 164.782 220.574 163.287L225.41 160.869C226.403 162.856 226.928 164.6 227.06 166.47C227.187 168.265 226.937 170.035 226.617 171.954L221.284 171.065ZM220.574 163.287C218.639 159.416 216.147 156.087 213.041 152.981L216.863 149.158C220.33 152.625 223.184 156.418 225.41 160.869L220.574 163.287ZM213.041 152.981C211.869 151.809 210.504 150.929 208.905 150.036C207.403 149.198 205.446 148.227 203.701 147.085L206.659 142.561C208.201 143.569 209.695 144.286 211.54 145.316C213.288 146.292 215.165 147.46 216.863 149.158L213.041 152.981ZM203.701 147.085L203.668 147.064L206.626 142.539L206.659 142.561L203.701 147.085ZM203.668 147.064C202.696 146.428 201.542 145.676 200.376 145.078C199.126 144.436 198.262 144.186 197.821 144.186V138.78C199.631 138.78 201.474 139.564 202.845 140.268C204.301 141.016 205.684 141.923 206.626 142.539L203.668 147.064ZM197.821 138.78C200.461 138.78 203.089 139.007 205.577 139.221C208.106 139.438 210.494 139.642 212.849 139.642V145.048C210.223 145.048 207.602 144.821 205.115 144.607C202.587 144.39 200.191 144.186 197.821 144.186V138.78ZM212.849 139.642C214.783 139.642 215.97 139.375 217.043 138.928C218.237 138.431 219.363 137.693 221.316 136.463L224.196 141.038C222.443 142.142 220.842 143.202 219.121 143.918C217.28 144.685 215.367 145.048 212.849 145.048V139.642ZM221.316 136.463C221.975 136.048 222.636 135.213 223.151 133.777C223.66 132.357 223.944 130.57 224.002 128.621C224.12 124.642 223.285 120.682 222.29 118.763L227.089 116.274C228.641 119.267 229.541 124.222 229.405 128.782C229.337 131.102 228.997 133.489 228.239 135.602C227.488 137.699 226.238 139.753 224.196 141.038L221.316 136.463ZM222.29 118.763C221.903 118.018 221.109 117.286 219.784 116.391C219.115 115.939 218.502 115.565 217.744 115.075C217.046 114.623 216.279 114.104 215.591 113.514L219.108 109.409C219.509 109.752 220.024 110.111 220.682 110.537C221.281 110.925 222.098 111.43 222.811 111.912C224.253 112.887 226.04 114.251 227.089 116.274L222.29 118.763ZM215.591 113.514C213.232 111.493 210.214 110.488 207.126 110.299L207.456 104.903C211.458 105.148 215.676 106.468 219.108 109.409L215.591 113.514ZM207.126 110.299C203.859 110.099 201.413 110.269 199.023 110.869C196.604 111.476 194.103 112.56 190.754 114.364L188.19 109.605C191.704 107.711 194.658 106.391 197.705 105.626C200.781 104.853 203.812 104.68 207.456 104.903L207.126 110.299ZM72.5951 159.781C70.4538 159.781 68.443 160.176 66.5692 160.888L64.6492 155.834C67.1137 154.898 69.7739 154.375 72.5951 154.375V159.781ZM66.5692 160.888C58.6185 163.909 52.8719 172.805 51.2627 181.548L45.9459 180.569C47.7747 170.633 54.3799 159.736 64.6492 155.834L66.5692 160.888ZM51.2627 181.548C50.3842 186.32 50.7691 193.19 52.9026 198.947C55.0458 204.731 58.6268 208.663 63.7232 209.193L63.1641 214.57C55.1067 213.732 50.3037 207.492 47.8334 200.826C45.3534 194.133 44.8956 186.275 45.9459 180.569L51.2627 181.548ZM63.7232 209.193L63.8185 209.203L63.2593 214.58L63.1641 214.57L63.7232 209.193ZM63.8185 209.203C69.5982 209.804 73.7493 210.128 77.5259 207.227L80.8195 211.514C75.0879 215.917 68.703 215.146 63.2593 214.58L63.8185 209.203ZM77.5259 207.227C81.803 203.941 85.1932 200.592 88.5201 196.367L92.7675 199.711C89.1621 204.29 85.4513 207.955 80.8195 211.514L77.5259 207.227ZM88.5201 196.367C91.648 192.395 94.1377 187.317 96.6209 182.411L101.444 184.853C99.0531 189.577 96.3039 195.22 92.7675 199.711L88.5201 196.367ZM96.6209 182.411C98.8729 177.963 101.451 173.191 102.863 169.005L107.986 170.733C106.413 175.395 103.568 180.657 101.444 184.853L96.6209 182.411Z" fill="#F32317"></path>
<path d="M119.878 136.027C118.838 135.045 116.037 133.605 114.404 131.3C109.565 124.47 113.298 113.496 118.109 110.188C120.121 108.805 121.766 107.634 123.968 106.585C125.863 105.683 127.924 105.936 129.973 105.936C135.489 105.936 141.893 109.546 145.733 113.386C149.242 116.895 152.307 121.464 152.307 126.533C152.307 129.041 152.282 130.98 151.138 133.268C150.423 134.699 149.173 136.117 147.908 137.066C146.449 138.161 145.313 139.709 143.769 140.702C141.55 142.129 139.303 141.87 136.774 141.87C132.823 141.87 129.028 140.707 125.445 139.095C123.597 138.263 121.364 137.431 119.878 136.027Z" fill="#FFFFFF" stroke="#FFFFFF" stroke-width="5.40609px" stroke-linecap="round"></path>
</svg>