<svg xmlns:xlink="http://www.w3.org/1999/xlink" xmlns="http://www.w3.org/2000/svg" width="240" height="240" viewBox="0 0 240 240" fill="none" id="svg1506719653_5758">
<path d="M131.917 165.747C133.317 171.851 136.605 177.732 140.205 181.438C146.102 187.508 152.556 191.655 160.958 193.522C167.595 194.997 176.483 195.082 183.165 194.092C190.132 193.06 201.92 191.448 206.258 185.139C213.783 174.193 211.005 155.285 198.507 148.412C191.163 144.373 183.69 142.367 175.977 139.384C182.51 140.611 189.708 140.693 196.293 140.693C211.276 140.693 225.9 134.803 226.44 117.79C226.712 109.238 226.269 102.153 220.62 95.1399C214.731 87.8301 204.104 88.3885 195.977 86.8833C191.709 86.0931 186.785 87.5456 182.469 87.7375C179.434 87.8723 176.09 88.8163 173.453 90.2999C172.456 90.8605 171.485 91.4025 170.532 91.9575C172.789 90.5702 174.974 88.8949 176.901 87.2946C182.767 82.4251 188.434 77.3331 192.971 71.2245C196.177 66.9093 196.831 62.3406 196.831 56.9891C196.831 50.1999 194.725 46.968 190.283 42.1842C185.794 37.3504 175.613 35.2969 169.499 33.9593C165.214 33.0221 158.611 32.6897 155.01 35.636C146.302 42.7611 138.181 52.7748 138.181 64.3914C138.181 55.3273 138.934 44.6498 136.156 35.9206C133.756 28.377 127.923 22.7509 121.541 18.3952C112.467 12.202 96.6577 11.1387 86.3639 13.9981C76.1555 16.8337 72.1285 29.1524 72.1285 38.5146C72.1285 46.0816 73.5951 51.4428 77.1267 58.1278C79.4409 62.5082 85.4074 67.6031 87.5028 71.7938C80.6493 64.1788 72.4133 58.5201 62.8914 54.7113C57.0779 52.3859 50.5995 49.1894 44.2272 49.0172C33.6493 48.7313 23.4593 58.9345 20.3117 68.3773C17.6464 76.3731 15.9516 95.6689 26.7018 99.2523C34.9973 102.017 41.909 104.251 50.4907 104.251C44.8855 104.251 38.312 107.118 33.5348 109.818C29.785 111.938 23.5509 112.541 20.8811 116.335C16.8669 122.039 14.7485 127.443 13.6052 134.43C12.9516 138.424 12.32 146.851 14.6175 150.5C17.3545 154.847 23.6352 158.12 28.41 159.484C35.2527 161.439 42.2628 162.331 49.3519 162.331C53.1716 162.331 57.0053 161.557 60.2973 159.484C62.6773 157.985 68.0313 156.86 69.2817 154.359C69.2817 156.498 66.5773 159.4 65.4223 161.066C62.2947 165.575 59.2623 171.186 57.925 176.535C55.5402 186.074 55.3431 196.125 58.1781 205.575C60.4908 213.284 69.9165 219.368 76.6841 222.816C83.7925 226.437 92.5595 228.901 100.6 227.687C108.132 226.55 116.133 224.238 121.668 218.703C127.63 212.741 134.077 205.068 134.733 196.211C135.243 189.329 134.948 182.8 134.765 175.997C134.669 172.458 132.684 169.868 131.917 165.747Z" fill="#84DEF9"></path>
<path d="M131.917 165.747C133.317 171.851 136.605 177.732 140.205 181.438C146.102 187.508 152.556 191.655 160.958 193.522C167.595 194.997 176.483 195.082 183.165 194.092C190.132 193.06 201.92 191.448 206.258 185.139C213.783 174.193 211.005 155.285 198.507 148.412C191.095 144.335 183.552 142.33 175.762 139.301C170.245 137.156 161.97 136.855 156.402 134.999C159.335 135.292 162.372 136.739 165.197 137.53C168.288 138.395 171.517 138.44 174.624 139.111C181.506 140.6 189.249 140.693 196.293 140.693C211.276 140.693 225.9 134.803 226.44 117.79C226.712 109.238 226.269 102.153 220.62 95.1399C214.731 87.8301 204.104 88.3885 195.977 86.8833C191.709 86.0931 186.785 87.5456 182.469 87.7375C179.434 87.8723 176.09 88.8163 173.453 90.2999C170.661 91.8705 168.068 93.2953 165.513 95.2664C164.509 96.041 161.555 97.9976 160.958 99.1258C161.555 97.9976 165.785 94.3767 167.253 93.7164C170.631 92.1964 174.048 89.6633 176.901 87.2946C182.767 82.4251 188.434 77.3331 192.971 71.2245C196.177 66.9093 196.831 62.3406 196.831 56.9891C196.831 50.1999 194.725 46.968 190.283 42.1842C185.794 37.3504 175.613 35.2969 169.499 33.9593C165.214 33.0221 158.611 32.6897 155.01 35.636C146.302 42.7611 138.181 52.7748 138.181 64.3914C138.181 55.3273 138.934 44.6498 136.156 35.9206C133.756 28.377 127.923 22.7509 121.541 18.3952C112.467 12.202 96.6577 11.1387 86.3639 13.9981C76.1555 16.8337 72.1285 29.1524 72.1285 38.5146C72.1285 46.0816 73.5951 51.4428 77.1267 58.1278C79.4409 62.5082 85.4074 67.6031 87.5028 71.7938C80.6493 64.1788 72.4133 58.5201 62.8914 54.7113C57.0779 52.3859 50.5995 49.1894 44.2272 49.0172C33.6493 48.7313 23.4593 58.9345 20.3117 68.3773C17.6464 76.3731 15.9516 95.6689 26.7018 99.2523C34.9973 102.017 41.909 104.251 50.4907 104.251C44.8855 104.251 38.312 107.118 33.5348 109.818C29.785 111.938 23.5509 112.541 20.8811 116.335C16.8669 122.039 14.7485 127.443 13.6052 134.43C12.9516 138.424 12.32 146.851 14.6175 150.5C17.3545 154.847 23.6352 158.12 28.41 159.484C35.2527 161.439 42.2628 162.331 49.3519 162.331C53.1716 162.331 57.0053 161.557 60.2973 159.484C62.6773 157.985 68.0313 156.86 69.2817 154.359C69.2817 156.498 66.5773 159.4 65.4223 161.066C62.2947 165.575 59.2623 171.186 57.925 176.535C55.5402 186.074 55.3431 196.125 58.1781 205.575C60.4908 213.284 69.9165 219.368 76.6841 222.816C83.7925 226.437 92.5595 228.901 100.6 227.687C108.132 226.55 116.133 224.238 121.668 218.703C127.63 212.741 134.077 205.068 134.733 196.211C135.243 189.329 134.948 182.8 134.765 175.997C134.669 172.458 132.684 169.868 131.917 165.747Z" stroke="#84DEF9" stroke-width="7.20811px" stroke-linecap="round" stroke-linejoin="round" fill="none"></path>
<path d="M89.093 112.968C90.3002 110.147 92.5095 109.4 95.3272 108.184C96.3135 107.758 97.4336 107.343 97.9369 107.314C98.9555 107.254 100.065 106.272 101.126 106.154C102.542 105.997 103.754 105.574 105.25 105.574C107.189 105.574 109.05 105.656 110.969 105.848C116.583 106.409 122.275 106.834 127.529 109.199C129.553 110.109 130.993 111.265 130.993 113.725C130.993 117.677 130.212 121.545 128.963 125.292C126.806 131.763 119.997 133.9 113.595 133.991C106.81 134.086 99.1929 134.1 93.7324 129.48C91.9596 127.98 90.1621 125.444 89.3829 123.262C88.6671 121.258 88.4547 119.564 88.5131 117.157C88.553 115.506 88.4434 114.486 89.093 112.968Z" fill="#F32317" stroke="#F32317" stroke-width="7.20811px" stroke-linecap="round"></path>
</svg>