<svg xmlns:xlink="http://www.w3.org/1999/xlink" xmlns="http://www.w3.org/2000/svg" style="width:100%;height:100%;" viewBox="0 0 240 240" preserveAspectRatio="none" width="240" height="240"><defs><svg width="240" height="240" viewBox="0 0 240 240" fill="none" id="svg-1854711417_3276">
<path d="M102.673 59.5088C104.423 61.2587 107.988 66.1905 110.497 66.6922C111.709 64.2677 114.907 61.1186 116.896 59.0122C119.484 56.2714 121.352 52.6889 123.653 49.7307C129.415 42.3217 134.148 34.0789 140.9 27.327C147.358 20.8683 156.553 13.5648 166.042 13.5648C169.661 13.5648 173.866 12.9539 177.421 13.6003C181.818 14.3997 186.411 17.1052 190.152 19.1835C194.764 21.7455 198.899 25.1564 202.67 28.9273C205.188 31.4451 207.728 33.3917 209.853 36.2529C211.623 38.6353 213.017 41.2412 214.796 43.6142C221.246 52.2131 219.162 61.2825 217.428 70.8186C214.169 88.7439 196.775 100.753 184.747 112.781C191.146 112.781 195.196 117.27 201.071 118.575C204.413 119.318 209.996 123.269 212.273 125.83C215.44 129.393 221.161 131.339 223.652 135.823C224.309 137.005 225.935 138.034 226.319 139.379C226.615 140.412 227.135 142.479 227.777 143.362C229.546 145.794 228.915 150.459 228.915 153.426C228.915 161.754 227.431 170.279 222.834 177.43C220.922 180.405 218.449 184.557 214.869 185.751C211.377 186.915 208.409 187.031 204.591 187.031C196.4 187.031 189.346 184.594 181.868 181.27C170.558 176.244 155.994 170.215 143.351 170.215C143.351 172.119 142.114 173.814 142.114 175.807C142.114 178.343 141.495 180.855 141.495 183.263C141.495 189.508 140.765 195.596 139.674 201.627C138.466 208.302 135.531 218.255 129.743 222.408C123.923 226.584 118.331 228 111.187 228C97.6957 228 80.2331 223.724 73.1482 210.913C70.7401 206.559 73.7207 197.607 74.6945 193.205C75.5374 189.394 75.4736 187.206 76.6753 183.55C78.5949 177.709 78.8978 179.105 84.253 169.75C70.0078 183.263 61.8799 180.631 50.6119 180.631C43.7512 180.631 34.5285 178.526 28.5638 175.368C22.6226 172.223 19.0815 167.821 15.904 161.784C13.0596 156.38 14.1577 147.71 15.904 142.083C17.8026 135.965 18.6934 131.968 23.3007 127.36C32.6945 117.967 46.5756 115.98 59.2881 115.98C58.6288 114.662 53.5583 113.366 51.9269 112.46C49.0992 110.889 46.4861 109.579 43.6055 107.979C40.6411 106.332 36.5096 104.653 34.0751 102.218C31.4169 99.5598 28.0647 96.2829 25.0425 93.9322C20.0811 90.0734 10 82.6971 10 75.6537C10 65.9475 11.2852 57.9413 13.9829 48.7692C19.4 30.351 42.0801 21.3508 59.0747 29.2816C63.2409 31.2258 67.4689 32.6174 71.4501 34.8292C74.8309 36.7074 77.6868 39.7352 81.0517 41.5858C86.4524 44.5562 90.9229 48.3988 95.2762 52.7521C97.6515 55.1274 100.288 57.1242 102.673 59.5088Z" fill="#FF8FCA" stroke="#FF8FCA" stroke-width="5.40609px" stroke-linecap="round" stroke-linejoin="round"></path>
<path d="M135.817 138.387C136.821 137.489 138.502 136.63 139.942 135.187C143.417 131.705 145.703 127.078 145.703 123.985C145.703 118.123 144.554 109.688 139.622 105.742C134.029 101.268 129.591 98.701 122.019 98.701H113.575C111.772 98.701 108.71 98.7956 106.657 99.3411C105.036 99.7716 104.235 100.367 102.816 101.261C99.7922 103.168 97.2825 105.755 96.2728 107.662C94.4085 111.184 94.4948 114.303 94.4948 118.224C94.4948 125.496 97.1443 129.971 100.576 136.147C102.226 139.118 104.868 141.946 108.221 142.904C110.024 143.419 110.904 144.148 113.058 144.148H118.819C122.813 144.148 125.749 143.842 129.38 142.228C131.389 141.336 134.197 139.837 135.817 138.387Z" fill="#FFFFFF" stroke="#FFFFFF" stroke-width="5.40609px" stroke-linecap="round"></path>
</svg></defs><use href="#svg-1854711417_3276"></use></svg>