<svg xmlns:xlink="http://www.w3.org/1999/xlink" xmlns="http://www.w3.org/2000/svg" width="240" height="240" viewBox="0 0 240 240" fill="none" id="svg-1624021502_4054">
<path d="M128.853 210.621C122.482 200.973 116.399 190.119 116.399 178.304C114.438 185.93 112.462 192.263 109.069 199.586C105.866 206.497 99.7234 212.005 94.4472 217.281C90.9844 220.744 84.2029 225.124 79.1558 225.124C75.3263 225.124 71.2852 225.509 68.3179 222.838C65.2295 220.059 62.7179 215.837 62.4851 211.646C62.2317 207.084 61.0663 202.615 61.0663 197.812C61.0663 192.94 62.4851 188.208 62.4851 183.664C62.4851 179.348 64.4445 175.116 66.5417 171.341C67.6791 169.294 68.597 165.952 70.046 164.333C71.4019 162.818 73.5503 159.076 75.3025 157.324C65.1421 162.106 56.551 166.487 45.8131 169.791C38.4689 172.051 32.2596 171.21 24.9254 171.21C18.0044 171.21 7.56183 168.074 7.15111 159.86C6.92026 155.243 6.89597 150.974 7.15111 146.381C7.81855 134.367 24.5013 127.363 33.044 122.617C36.9629 120.439 40.8221 118.611 44.749 116.429C48.2955 114.459 57.0875 108.264 61.2853 108.264C58.2516 108.264 51.9741 101.854 49.0066 101.689C47.2883 101.594 43.3699 100.443 42.0703 99.4035C38.3779 96.4495 30.9465 94.3415 28.4342 89.9449C25.569 84.9308 20.2993 81.6551 17.4386 76.5058C15.0915 72.2812 12.8275 65.5605 12.8275 60.5444C12.8275 53.4584 13.6494 49.6502 19.9214 46.5142C24.23 44.3599 35.3636 43.486 40.0604 45.2924C43.5557 46.6368 47.4889 46.5128 51.0954 48.0906C54.633 49.6383 58.8299 49.8967 62.2092 51.7164C67.1444 54.3738 71.8668 56.6236 76.4365 59.9138C87.439 67.8356 94.1502 79.0535 102.921 88.9202C102.921 83.0142 101.503 72.5728 101.503 66.5744C101.503 61.0056 102.426 56.2114 103.591 50.9677C104.311 47.7305 104.29 44.2752 105.01 41.0361C105.645 38.1812 106.505 35.3745 107.138 32.5234C108.603 25.9306 115.109 16.1001 122.43 14.4733C133.057 12.1117 146.303 18.7428 146.904 30.7499C147.017 33.0186 148.323 35.063 148.323 37.2921V52.7412C148.323 64.1666 145.218 74.9308 140.519 85.3733C147.421 78.4721 154.468 69.4032 162.391 63.4609C165.81 60.8962 168.709 59.888 172.44 58.0222C181.687 53.3988 193.707 52.0318 204.008 52.0318C209.326 52.0318 215.91 50.5109 219.576 55.2241C222.193 58.5893 222.098 65.3323 222.098 69.4119C222.098 73.8281 218.889 78.966 215.871 81.984C211.888 85.9676 208.664 92.5284 203.102 94.7531C200.719 95.7063 196.934 98.0846 194.589 99.5612C192.083 101.139 189.269 102.092 186.628 103.266C182.305 105.187 177.141 107.365 172.44 107.365C176.966 109.627 184.31 112.426 189.308 113.907C197.407 116.306 204.371 118.719 212.088 122.577C216.604 124.835 220.755 127.612 224.896 130.459C227.006 131.91 230.828 135.834 231.36 138.223C231.924 140.764 232.739 142.538 232.739 145.317C232.739 147.66 232.148 149.81 232.03 152.056C231.522 161.697 219.588 164.826 211.772 164.826C204.624 164.826 197.441 165.713 190.254 164.116C184.022 162.731 177.817 160.785 171.967 158.205C166.348 155.725 159.406 153.82 153.288 151.347C157.653 153.82 163.765 160.334 166.766 164.668C169.824 169.084 171.302 173.826 172.599 179.014C175.596 191.002 176.845 208.119 171.18 219.449C170.088 221.633 168.616 223.679 166.609 225.124C164.586 226.581 163.379 226.18 161.091 227.095C158.713 228.046 155.135 226.543 152.578 226.543C149.303 226.543 145.881 225.294 142.962 223.863C136.757 220.821 132.656 216.38 128.853 210.621Z" fill="#FF8FCA" stroke="#FF8FCA" stroke-width="5.09164px" stroke-linecap="round" stroke-linejoin="round"></path>
<path d="M131.253 139.083C132.89 137.982 133.774 134.479 134.85 132.909C135.12 132.398 135.113 131.923 135.328 131.412C135.645 130.659 135.557 129.508 135.557 128.689C135.557 125.554 134.665 121.948 133.083 119.209C131.204 115.958 127.339 112.358 123.406 111.965C118.638 111.488 113.207 111.215 108.656 113.077C104.226 114.889 99.657 118.996 98.2413 123.648C97.5896 125.789 97.7632 128.168 97.7632 130.383C97.7632 132.732 97.8146 135.444 98.8857 137.586C100.715 141.244 104.507 143.888 108.615 144.145C112.79 144.406 116.848 144.335 120.953 143.49C123.313 143.004 125.514 142.605 127.605 141.318C128.816 140.572 130.073 139.877 131.253 139.083Z" fill="#0015D4" stroke="#0015D4" stroke-width="5.09164px" stroke-linecap="round"></path>
</svg>