<svg xmlns:xlink="http://www.w3.org/1999/xlink" xmlns="http://www.w3.org/2000/svg" width="240" height="240" viewBox="0 0 240 240" fill="none" id="svg-1061847328_3894">
<path d="M64.5064 181.251C66.4219 175.026 73.3485 166.584 77.0563 161.366C74.4133 163.528 68.4616 165.037 65.4243 165.275C61.1828 165.608 57.0127 166.066 52.7304 166.144C48.0092 166.23 43.1959 167.182 38.492 166.241C34.7991 165.502 31.7527 164.051 28.5734 161.993C25.467 159.983 22.0632 158.167 19.2822 155.695C16.5363 153.254 14.7139 150.562 12.332 147.9C10.982 146.391 11.0288 142.449 11.0288 140.515V130.524C11.0288 127.311 10.8329 124.095 11.4632 120.943C11.9993 118.263 12.8823 117.505 14.2867 115.32C15.5792 113.31 18.1767 112.029 20.151 110.759C22.5187 109.237 25.4349 107.704 28.0666 106.729C37.7042 103.16 48.4426 101.42 58.3763 101.42C56.7787 100.621 54.2596 98.6148 53.1636 97.1728C52.5569 96.3745 51.3502 95.8589 50.5573 95.2422C49.2573 94.2311 48.368 92.8543 47.2752 91.6464C44.7195 88.8217 42.1739 86.1525 40.2284 82.8379C38.6898 80.2166 36.4818 77.1848 35.5949 74.2707C33.9038 68.7141 33.8299 62.3551 34.4607 56.6779C35.0434 51.4333 37.4349 48.2266 40.7593 44.2977C46.4478 37.575 56.9586 37.1203 64.7957 39.8331C69.658 41.5163 74.2488 43.7732 78.0205 47.4591C86.1596 55.4133 96.2166 63.5876 100.947 74.053C99.6443 70.5413 99.6443 68.9544 99.6443 66.3304C99.6443 61.8694 99.2099 57.298 99.2099 52.7678C99.2099 43.2368 97.0445 32.7762 102.902 24.3151C110.231 13.729 122.762 9.18077 135.047 11.9108C137.597 12.4774 139.753 13.7622 142.022 14.9998C145.265 16.7692 146.883 19.2098 149.382 21.7088C153.212 25.5386 156.55 32.4239 156.55 37.9019C156.55 45.9265 157.161 49.4645 155.814 56.6779C154.774 62.243 153.329 67.0337 151.575 70.5413C150.371 72.9509 148.99 79.1872 147.646 81.5589C146.722 83.1893 146.313 85.3298 145.281 86.8199C148.571 85.0342 152.168 83.9546 155.814 82.9653C158.501 82.236 161.176 81.7601 163.885 81.2132C167.197 80.5442 170.978 79.8251 174.336 79.7239C177.984 79.6139 181.55 78.9354 185.232 78.9354C189.543 78.9354 193.878 78.8802 198.146 79.4173C207.198 80.5565 215.402 84.0877 222.762 89.886C226.073 92.4946 228.957 96.8434 229.179 101.406C229.339 104.714 228.775 107.685 228.452 110.955C228.131 114.208 225.898 118.37 223.811 120.635C221.323 123.336 219.317 126.369 216.386 128.607C213.252 131.001 209.898 134.238 206.297 135.703C203.222 136.955 200.327 138.396 197.218 139.47C195.157 140.182 193.017 140.536 190.882 140.916C180.715 142.722 169.895 141.65 159.809 140.434C163.225 141.573 172.247 151.58 174.019 154.416C177.871 160.578 182.794 166.261 185.893 172.901C188.349 178.165 189.561 184.499 189.561 190.253C189.561 193.877 188.891 197.308 188.692 200.896C188.558 203.304 188.101 207.197 186.52 209.149C185.178 210.807 184.769 213.044 182.828 214.338C180.773 215.708 178.058 217.571 175.757 218.368C171.376 219.884 166.442 220.755 162.001 219.14C155.091 216.627 148.7 212.162 143.515 206.977C140.434 203.896 137.822 200.32 135.696 196.552C132.373 190.66 127.175 186.106 124.836 179.61C124.836 189.189 123.347 199.77 120.302 208.908C118.503 214.304 114.523 218.952 111.372 223.677C108.211 228.419 104.654 230 99.1129 230C93.5788 230 85.4935 230.109 81.0616 225.994C75.2831 220.628 69.4422 215.782 65.5683 208.739C62.6689 203.467 62.0428 196.16 62.9378 190.253C63.4125 187.12 63.5601 184.327 64.5064 181.251Z" fill="#0015D4" stroke="#0015D4" stroke-width="5.40609px" stroke-linecap="round" stroke-linejoin="round"></path>
<path d="M96.0615 111.5C99.8758 106.874 104.187 103.287 110.811 103.111C114.944 103.002 116.932 103.402 120.742 105.008C124.288 106.502 127.488 108.736 129.576 110.824C134.382 115.63 133.004 124.711 131.644 130.662C130.828 134.232 129.416 138.476 126.376 140.84C122.216 144.075 116.935 145.759 111.686 146.028C103.777 146.434 96.4079 144.336 92.3641 136.984C90.647 133.862 90.6548 129.902 90.7739 126.448C90.9433 121.535 92.901 115.333 96.0615 111.5Z" fill="#FFCB41" stroke="#FFCB41" stroke-width="5.40609px" stroke-linecap="round"></path>
</svg>