<svg xmlns:xlink="http://www.w3.org/1999/xlink" xmlns="http://www.w3.org/2000/svg" style="width:100%;height:100%;" viewBox="0 0 240 240" preserveAspectRatio="none" width="240" height="240"><defs><svg width="240" height="240" viewBox="0 0 240 240" fill="none" id="svg394844495_3213">
<path d="M106.08 198.964C102.422 193.247 99.3331 187.599 99.3331 180.589C99.3331 183.49 96.6192 189.719 93.9065 190.925C91.8854 191.823 90.3381 193.873 88.1643 194.542C86.6804 194.999 85.2739 195.76 83.8577 196.38C82.1095 197.145 80.0809 197.428 78.4313 198.418C72.1713 202.174 62.6231 203.619 55.4911 204.333C52.4966 204.632 49.3463 204.361 46.3322 204.361C42.675 204.361 38.2686 205.085 34.7329 204.103C30.78 203.005 27.0978 202.933 23.3633 200.859C20.7998 199.434 19.436 194.814 18.8269 192.073C16.7735 182.832 15.6324 174.324 18.7121 165.085C22.1815 154.677 29.6271 147.238 37.3169 139.761C43.8612 133.399 52.1196 129.093 58.5057 122.707C54.3161 122.707 48.1324 119.195 44.0354 118.171C37.5956 116.561 30.7124 114.915 25.1721 111.079C19.1512 106.911 12.3703 102.785 7.97418 96.867C2.83414 89.9477 3.66911 79.2905 5.04565 71.2279C6.47451 62.8589 9.77559 56.2994 17.6785 53.2261C25.9637 50.0041 33.5446 48.2878 42.485 48.2878C52.0751 48.2878 60.527 49.6506 69.617 52.6806C75.248 54.5576 80.7178 57.042 86.011 59.7148C88.5565 61.0001 90.8479 62.5059 93.1314 64.1937C95.8943 66.2359 100.256 67.8898 101.917 71.027C101.917 65.4464 102.926 59.1138 103.869 53.5707C105.232 45.5682 106.835 38.9552 111.851 32.2671C114.556 28.661 117.052 25.8038 120.78 23.2231C123.915 21.0531 126.924 19.8833 130.341 18.3135C135.405 15.987 145.962 14.5949 151.3 17.0215C153.321 17.94 156.16 18.4977 158.363 19.2322C160.887 20.0735 163.861 21.5706 166 23.2518C170.228 26.5733 174.269 33.4262 174.269 38.9855C174.269 48.2289 175.132 57.3203 173.752 66.6343C173.005 71.6759 171.076 75.8625 168.814 80.3869C167.331 83.3523 166.142 87.6943 163.933 90.1487C176.952 90.1487 191.49 89.7336 203.985 93.5364C212.371 96.0886 219.363 99.6935 226.466 105.021C228.415 106.483 232.295 108.067 233.414 110.304C234.924 113.323 235.251 117.29 235.251 120.611C235.251 124.637 236.577 130.036 234.476 133.818C232.105 138.086 230.144 144.124 225.834 146.997C209.903 157.617 190.101 159.118 171.685 156.816C171.685 160.144 173.236 164.366 173.236 167.927C173.236 173.244 172.719 178.345 172.719 183.69C172.719 195.976 170.63 206.967 161.608 215.99C157.907 219.69 154.23 224 148.429 224C142.069 224 136.077 223.116 129.824 222.421C122.409 221.597 118.245 215.068 113.689 210.161C110.666 206.907 108.48 202.713 106.08 198.964Z" fill="#84DEF9" stroke="#84DEF9" stroke-width="5.08406px" stroke-linecap="round" stroke-linejoin="round"></path>
<path d="M136.662 137.19C138.15 135.891 139.275 134.208 140.249 131.95C141.262 129.601 141.5 128.109 141.562 125.571C141.632 122.692 141.392 120.971 140.249 118.303C139.334 116.168 138.295 115.375 136.951 113.298C135.074 110.398 132.122 108.679 128.982 107.191C126.074 105.812 122.884 105.5 119.654 105.661C116.359 105.826 112.323 105.791 109.266 107.088C107.188 107.969 105.196 108.482 103.536 110.056C101.792 111.71 100.435 113.491 99.5155 115.672C96.5315 122.747 94.7052 132.525 101.032 138.525C104.317 141.64 109.373 143.612 114.008 143.856C117.411 144.035 120.917 144.275 124.216 143.251C128.696 141.86 133.12 140.28 136.662 137.19Z" fill="#0015D4" stroke="#0015D4" stroke-width="5.08406px" stroke-linecap="round"></path>
</svg></defs><use href="#svg394844495_3213"></use></svg>