<svg xmlns:xlink="http://www.w3.org/1999/xlink" xmlns="http://www.w3.org/2000/svg" width="240" height="240" viewBox="0 0 240 240" fill="none" id="svg1453077111_2572">
<path d="M70.5954 203.792C66.5499 196.837 67.275 190.397 67.275 184.539C61.1562 184.539 56.4447 185.226 50.468 183.526C46.294 182.338 40.3529 178.303 37.1937 175.157C33.5831 171.561 28.4895 167.646 24.4011 164.389C19.4073 160.41 16.3064 152.755 14.4989 146.904C10.4097 133.669 14.7438 120.817 26.8098 113.748C28.6873 112.648 34.9877 112.368 32.9652 111.562L32.9547 111.558C30.5096 110.584 28.1975 109.663 26.8098 107.245C23.2433 101.029 23.0898 94.6909 23.8659 87.7346C24.8258 79.1308 23.4852 70.8029 26.0604 62.4675C28.6695 54.0229 35.397 47.4535 42.2251 41.6248C48.4071 36.3477 54.2173 34.8549 62.6718 34.8549C67.8881 34.8549 75.5224 34.7093 79.5858 37.9467C81.3608 39.3609 82.6903 41.0931 82.6903 37.2537C82.6903 30.2424 88.8493 25.5456 94.4124 22.2214C101.096 18.2274 108.117 17.5838 115.876 17.5838C136.579 17.5838 158.317 18.9482 171.864 36.2942C174.113 39.1748 175.182 41.7799 175.182 45.4096C175.182 47.0252 174.936 51.4541 175.61 52.1261C177.007 53.5174 182.837 53.0856 184.817 53.0856C189.308 53.0856 193.457 54.4617 197.77 55.4844C216.084 59.827 223.838 79.8513 226.192 96.2636C226.517 98.5276 227.266 105.873 226.031 107.565C224.222 110.042 226.304 113.644 225.068 116.413C222.472 122.23 222.156 127.886 218.003 133.205C216.88 134.642 211.761 137.885 212.543 139.442C213.671 141.688 215.805 143.476 217.36 145.412C220.017 148.719 218.538 157.28 218.538 161.51C218.538 169.413 214.123 174.923 210.348 181.607C204.527 191.913 194.985 196.136 184.883 200.608L184.817 200.637C178.147 203.589 167.379 201.81 160.195 201.81C158.674 201.81 156.383 202.231 154.95 201.597C154.399 201.353 151.502 199.972 151.096 200.477C149.536 202.419 148.758 205.016 146.76 206.607C133.575 217.113 118.608 221 101.959 221C94.378 221 84.6949 219.534 78.8365 214.283C74.9258 210.778 73.571 208.908 70.5954 203.792Z" fill="#0015D4" stroke="#0015D4" stroke-width="5.40609px" stroke-linecap="round"></path>
<path d="M122.195 146.829C114.772 144.917 108.579 147.047 103.482 141.492C99.0348 137.045 95.9224 132.868 94.2816 126.67C92.5314 120.058 92.6624 112.753 97.0671 107.247C102.279 100.733 111.853 95.7195 119.965 94.3675C130.185 92.6641 140.658 97.8315 149.481 102.29C156.002 105.584 159.516 110.658 159.601 117.981C159.684 125.108 158.255 130.673 154.771 136.866C152.636 140.662 146.089 144.496 141.866 145.172C138.384 145.729 134.921 146.362 131.388 146.526C128.228 146.673 125.263 147.619 122.195 146.829Z" fill="#FFFFFF" stroke="#FFFFFF" stroke-width="5.40609px" stroke-linecap="round"></path>
</svg>