<svg xmlns:xlink="http://www.w3.org/1999/xlink" xmlns="http://www.w3.org/2000/svg" width="240" height="240" viewBox="0 0 240 240" fill="none" id="svg599653479_4501">
<path d="M69.6168 180.768C69.8544 178.629 72.2406 175.362 73.9257 173.443C69.4897 173.443 64.3699 174.838 59.9232 173.85C55.1224 172.783 45.0974 171.171 38.1068 165.257C33.0112 160.946 30.4384 156.335 28.0058 151.47C26.3887 148.235 24.745 144.68 23.5537 141.225C22.0145 136.761 20.0373 132.65 19.1495 127.989C17.6362 120.044 17.3678 113.723 19.8809 104.787C22.5294 95.369 27.5308 89.339 32.3489 84.5208C36.5042 80.3655 41.0652 79.5182 46.7823 79.5182C51.1293 79.5182 54.4769 81.2214 58.4152 82.5341C58.4152 74.9 54.5342 68.0746 53.6996 60.5628C53.1649 55.7512 53.2448 50.843 53.2448 45.914C53.2448 41.3504 56.0719 33.857 59.1809 30.4993C63.1506 26.212 65.6281 21.4868 70.9095 18.7706C79.6202 14.2908 88.5671 11.4462 98.4838 11.4462C101.448 11.4462 104.234 12.1446 106.67 13.9356C110.363 16.6509 114.618 18.4859 118.087 21.5472C120.945 24.0683 123.096 26.3801 125.388 29.3264C126.567 30.8425 126.83 32.9473 128.116 34.3769C129.105 35.4758 129.965 37.9379 130.343 39.2598C130.601 40.1635 132.938 42.933 133.709 43.3186C135.163 43.1571 139.167 40.8179 140.277 39.977C141.674 38.9184 143.007 37.8347 144.49 36.8654C147.056 35.1876 149.896 34.2499 152.556 32.7723C156.554 30.551 163.144 31.6952 167.636 31.6952C177.69 31.6952 188.39 34.7609 195.76 42.1313C200.638 47.0086 202.579 53.5016 205.957 59.2934C208.647 63.9044 207.489 71.1199 207.489 76.2879C207.489 78.728 206.122 82.2923 205.119 84.4979C203.457 88.1543 201.532 91.5898 199.303 94.934C197.799 97.1899 196.741 99.0859 194.348 100.415C193.12 101.097 190.624 102.51 188.347 104.787C192.9 104.787 200.401 110.448 202.102 110.972C205.261 111.944 208.583 115.758 210.839 117.961C213.411 120.474 216.158 123.696 217.397 127.105C218.381 129.809 219.655 132.373 220.629 135.099C221.427 137.335 221.275 139.634 221.275 141.993C221.275 147.502 219.499 153.994 216.536 158.7C212.007 165.893 206.61 172.674 201.24 179.237C196.818 184.643 191.106 187.663 183.983 187.663H171.943C168.682 187.663 163.967 187.542 160.956 186.274C158.025 185.04 154.874 183.856 151.861 182.684C148.926 181.543 145.606 177.752 142.43 177.752C145.452 178.508 144.584 187.242 144.584 189.816C144.584 197.091 143.96 203.449 142.095 210.497C141.308 213.469 139.446 217.192 137.356 219.449C136.443 220.434 135.711 221.867 134.483 222.537C133.188 223.243 131.495 224.222 130.366 225.146C123.44 230.812 112.969 230.023 104.659 229.885C101.154 229.827 96.7691 229.492 93.4091 228.497C89.9971 227.486 86.836 226.046 83.4996 224.811C80.2099 223.592 77.9271 221.09 75.2178 219.018C71.8069 216.41 70.5025 212.329 68.3242 208.869C64.4569 202.727 66.664 194.279 67.0317 187.662C67.1699 185.174 69.3675 183.012 69.6168 180.768Z" fill="#FFCB41" stroke="#FFCB41" stroke-width="5.40609px" stroke-linecap="round" stroke-linejoin="round"></path>
<path d="M111.196 138.765C113.222 139.891 117.874 139.411 120.093 139.1C123.468 138.176 126.551 135.351 128.55 132.853C130.161 130.839 129.938 127.698 129.938 125.193C129.938 122.421 130.269 119.349 129.531 116.768C128.695 113.842 129.123 110.973 127.568 108.175C126.386 106.046 125.195 103.458 123.044 102.263C121.902 101.628 120.623 100.176 119.693 99.2466C118.951 98.504 118.113 98.3269 117.348 97.7147C115.958 96.603 112.124 97.1881 110.334 97.1881C108.001 97.1881 105.204 97.5862 103.01 98.0738C100.347 98.6655 98.9115 101.242 96.9781 102.789C92.0929 106.697 94.6085 112.166 94.6085 117.342C94.6085 119.813 96.4274 124.666 97.9595 126.581C99.2042 128.137 100.532 132.196 102.603 132.948C104.391 133.598 105.831 135.43 107.318 136.587C108.45 137.467 109.939 138.067 111.196 138.765Z" fill="#F32317"></path>
<path d="M120.093 139.1C117.874 139.411 113.222 139.891 111.196 138.765C109.939 138.067 108.45 137.467 107.318 136.587C105.831 135.43 104.391 133.598 102.603 132.948C100.532 132.196 99.2042 128.137 97.9595 126.581C96.4274 124.666 94.6085 119.813 94.6085 117.342C94.6085 112.166 92.0929 106.697 96.9781 102.789C98.9115 101.242 100.347 98.6655 103.01 98.0738C105.204 97.5862 108.001 97.1881 110.334 97.1881C112.124 97.1881 115.958 96.603 117.348 97.7147C118.113 98.3269 118.951 98.504 119.693 99.2466C120.623 100.176 121.902 101.628 123.044 102.263C125.195 103.458 126.386 106.046 127.568 108.175C129.123 110.973 128.695 113.842 129.531 116.768C130.269 119.349 129.938 122.421 129.938 125.193C129.938 127.698 130.161 130.839 128.55 132.853C126.12 135.89 122.085 139.411 117.874 139.411" stroke="#F32317" stroke-width="5.40609px" stroke-linecap="round" fill="none"></path>
</svg>