<svg xmlns:xlink="http://www.w3.org/1999/xlink" xmlns="http://www.w3.org/2000/svg" style="width:100%;height:100%;" viewBox="0 0 240 240" preserveAspectRatio="none" width="240" height="240"><defs><svg width="240" height="240" viewBox="0 0 240 240" fill="none" id="svg-1535384251_3497">
<path d="M194.366 97.1547C191.321 99.5466 188.609 102.924 184.423 102.924C194.485 102.924 206.01 108.952 214.249 114.249C225.394 121.413 234.135 134.59 234.135 148.097C234.135 155.564 233.89 163.011 230.514 169.763C226.723 177.346 217.797 184.125 208.971 184.125C202.327 184.125 196.108 184.166 189.638 182.99C187.977 182.688 185.619 181.401 184.175 180.535C182.432 179.488 180.344 179.107 178.621 178.018C176.677 176.791 174.402 176.365 172.514 174.98L172.494 174.966C171.306 174.094 169.917 173.076 168.399 173.076C171.04 173.604 172.266 183.242 172.266 186.057C172.266 191.172 173.335 197.679 172.235 202.628C170.386 210.95 166.603 216.801 159.132 221.686C154.101 224.975 150.081 225 144.217 225C138.441 225 132.798 224.546 127.247 223.312C122.825 222.33 116.766 218.231 114.542 214.229C111.498 208.749 108.318 203.776 105.857 197.933C103.638 192.663 102.115 184.863 102.115 179.151C100.451 182.48 99.1598 186.234 95.2105 187.989C92.6921 189.108 90.9576 191.125 88.183 191.978C85.5242 192.796 82.9855 193.989 80.2962 194.587C69.9533 196.885 57.6202 194.145 48.7796 189.094C44.0902 186.414 38.5799 181.841 36.259 176.941C35.1009 174.496 33.8298 172.429 33.0674 169.76C32.2849 167.022 32.515 164.204 32.515 161.352C32.515 155.208 35.0669 148.024 38.3457 142.816C40.7433 139.008 44.6068 129.439 50.1899 129.438L49.7628 129.438C40.4747 129.44 29.9791 129.441 21.8964 124.467C14.3173 119.803 6 113.388 6 103.476C6 97.7068 6.84369 93.1935 8.88467 87.8869C10.658 83.2761 14.645 80.0798 18.1524 76.962C20.7539 74.6496 25.2707 72.9943 28.525 71.8678C32.0219 70.6573 35.4237 70.3334 39.143 70.3334C48.8399 70.3334 58.2031 71.9906 67.8669 71.9906C66.7626 69.5114 66.7626 67.3278 66.7626 65.0833C66.7626 63.3416 66.2102 61.4466 66.2102 59.5595C66.2102 55.8418 65.9713 51.8734 66.7319 48.4505C68.6443 39.8449 70.4476 31.0723 79.5902 27.2451C90.9345 22.4964 100.855 27.8804 111.26 31.6642C114.998 33.0235 119.69 35.1781 122.553 37.7404C124.708 39.6683 127.567 40.5441 129.734 42.7118L129.839 42.8169C131.162 44.1377 133.396 46.37 133.603 48.2381C133.603 46.1517 136.267 42.1511 137.47 40.382L137.526 40.3C139.198 37.8414 140.861 35.3958 142.687 33.0476C146.877 27.6612 151.625 22.959 157.08 18.7164C162.33 14.633 170.86 11.8066 177.487 14.819C184.957 18.2145 194.184 20.5308 199.337 27.5238C204.63 34.7072 209.28 41.717 209.28 50.8773C209.28 53.7213 210.187 58.6475 209.004 61.2498C207.662 64.2018 208.779 68.4004 207.5 71.4382C205.21 76.877 204.432 84.3475 200.442 88.8076C198.068 91.4609 197.327 94.8276 194.366 97.1547Z" fill="#FFCB41" stroke="#FFCB41" stroke-width="5.16195px" stroke-linecap="round" stroke-linejoin="round"></path>
<path d="M140.662 106.603C142.106 106.983 145.028 108.424 147.366 110.282C150.02 112.39 151.817 113.706 153.002 116.882C153.948 119.418 153.554 122.012 153.554 123.793C153.554 126.449 153.102 128.861 153.102 131.483C153.102 137.808 148.928 142.255 144.507 146.184C142.218 148.219 137.737 149.768 134.731 150.23C132.855 150.519 130.674 150.3 128.775 150.256C126.972 150.214 123.689 150.201 122.065 149.577C118.613 148.249 115.552 147.537 112.742 144.727C108.802 140.787 106.749 136.055 105.429 130.628C103.839 124.092 103.546 117.481 106.61 111.353C109.553 105.467 117.489 102.306 123.699 102.306C127.13 102.306 130.758 102.879 134.003 104.115C136.215 104.958 138.367 105.999 140.662 106.603Z" fill="#FF8FCA" stroke="#FF8FCA" stroke-width="5.16195px" stroke-linecap="round"></path>
</svg></defs><use href="#svg-1535384251_3497"></use></svg>