<svg xmlns:xlink="http://www.w3.org/1999/xlink" xmlns="http://www.w3.org/2000/svg" style="width:100%;height:100%;" width="600"  height="600" ><defs><svg viewBox="0 0 600 600" id="svg11349182076"><path d="M 485.965 305.105 C 492.609 301.102 503.645 297.864 509.722 293.339 C 515.06 289.363 523.457 284.749 527.053 279.059 C 529.029 275.931 534.235 273.194 537.2 270.851 C 539.437 269.084 540.999 265.691 543.377 264.3 C 548.448 261.332 554.845 251.956 558.238 247.09 C 566.668 235.002 571.506 219.823 573.622 205.354 C 574.557 198.969 574.711 192.685 574.832 186.893 C 574.965 180.578 567.928 175.875 564.453 171.209 C 556.971 161.162 538.352 152.685 525.538 154.664 C 506.823 157.554 488.505 167.791 473.711 178.808 C 461.08 188.214 446.96 195.27 434.006 203.897 C 427.948 207.931 406.814 214.238 405.709 221.791 C 410.327 190.227 427.731 162.982 432.301 131.746 C 433.93 120.615 437.106 109.1 438.78 97.654 C 440.536 85.658 443.145 77.636 433.136 69.989 C 425.629 64.254 413.706 65.404 404.777 65.094 C 390.837 64.611 374.326 79.967 364.223 87.491 C 353.392 95.557 345.656 111.298 337.908 122.409 C 334.354 127.505 331.436 133.241 327.747 138.069 C 325.308 141.262 319.488 148.654 318.935 152.436 C 321.471 135.101 320.426 121.046 315.224 104.177 C 310.387 88.495 305.156 71.817 298.646 56.688 C 290.264 37.21 282.537 11.422 258.079 7.843 C 246.53 6.154 234.49 12.123 225.445 19.139 C 217.216 25.522 213.706 35.959 212.256 45.871 L 207.082 81.231 C 204.789 96.901 206.286 117.266 204.036 132.642 C 204.182 128.437 194.809 115.381 191.843 111.806 C 187.156 106.159 182.035 98.856 176.184 94.273 C 164.656 85.243 152.1 74.737 136.215 80.969 C 121.097 86.9 118.773 108.587 117.479 122.96 C 116.405 134.895 128.176 155.002 138.844 160.381 C 131.141 159.254 126.662 152.65 119.972 148.995 C 112.877 145.119 105.431 143.166 98.28 139.857 C 93.189 137.502 85.453 136.158 79.888 135.344 C 73.46 134.403 67.972 132.109 61.448 131.155 C 51.251 129.663 39.45 129.84 37.138 142.177 C 35.11 152.997 34.955 164.062 40.729 173.684 C 54.914 197.323 75.36 215.436 95.201 234.504 C 105.921 244.806 119.677 256.159 132.765 263.111 C 138.57 266.195 139.265 266.616 144.519 269.901 C 149.558 273.053 154.744 276.407 159.077 279.429 C 125.614 274.533 95.649 279.904 64.31 292.278 C 55.671 295.689 48.727 305.016 44.486 313.205 C 40.24 321.403 36.633 337.197 42.13 345.753 C 48.356 355.445 53.808 362.779 63.545 369.103 C 71.693 374.394 85.146 376.916 94.94 378.349 C 105.392 379.878 116.317 382.462 126.665 381.627 C 130.514 381.316 136.705 380.112 143.316 379.207 C 118.096 384.788 98.1 408.375 90.008 432.209 C 80.928 458.952 83.126 510.108 117.099 518.743 L 117.346 518.805 C 131.839 522.489 145.445 525.948 159.315 518.193 C 172.311 510.926 182.969 503.092 193.749 492.876 C 204.112 483.056 213.039 470.003 221.278 458.31 C 228.675 447.813 237.711 435.697 243.324 424.667 C 237.843 462.124 227.013 500.044 228.324 537.947 C 229.153 561.917 253.696 588.247 278.851 579.303 C 301.76 571.158 312.127 542.883 318.713 521.434 C 322.76 508.253 330.608 495.993 333.264 482.558 C 334.135 478.156 340.245 455.248 343.375 454.216 C 340.63 472.983 351.228 496.193 360.271 512.521 C 369 528.281 380.108 541.972 390.737 556.243 C 404.658 574.936 432.608 589.075 454.623 575.365 C 477.242 561.279 476.588 531.109 474.233 507.574 C 473.002 495.26 467.223 483.377 463.4 471.778 C 461.295 465.389 447.729 444.137 447.729 444.137 C 447.729 444.137 470.19 468.589 480.588 479.432 C 487.745 486.895 499.493 493.464 509.63 494.947 C 527.065 497.498 547.546 493.17 553.551 474.451 C 556.7 464.634 557.886 459.146 554.656 449.347 C 550.796 437.635 545.153 427.271 537.794 417.39 C 531.369 408.762 522.36 404.157 514.563 397.258 L 514.485 397.189 C 509.945 393.171 502.449 386.539 496.542 385.675 C 509.684 387.598 522.565 391.79 535.626 393.701 C 547.302 395.41 552.373 392.775 562.99 388.077 C 578.459 381.232 581.004 346.992 576.208 333.132 C 573.504 325.32 564.278 320.162 559.281 314.43 C 552.64 306.813 543.596 302.375 534.381 300.446 C 516.42 296.685 505.388 298.039 485.965 305.105 Z" fill="#FD1E1F"></path><path d="M 485.965 305.105 L 486.478 306.515 C 485.752 306.779 484.945 306.448 484.612 305.752 C 484.279 305.055 484.53 304.219 485.191 303.82 Z M 527.053 279.059 L 528.321 279.86 Z M 537.2 270.851 L 536.27 269.674 Z M 543.377 264.3 L 544.135 265.594 Z M 558.238 247.09 L 559.469 247.948 L 559.469 247.948 Z M 574.832 186.893 L 573.333 186.862 Z M 564.453 171.209 L 565.656 170.313 Z M 525.538 154.664 L 525.767 156.146 Z M 473.711 178.808 L 474.607 180.011 Z M 434.006 203.897 L 433.175 202.648 Z M 407.193 222.008 C 407.073 222.828 406.311 223.395 405.491 223.275 C 404.672 223.155 404.104 222.394 404.224 221.574 Z M 433.136 69.989 L 434.047 68.797 Z M 404.777 65.094 L 404.828 63.595 Z M 364.223 87.491 L 363.327 86.288 Z M 327.747 138.069 L 326.555 137.159 Z M 320.419 152.654 C 320.299 153.473 319.537 154.041 318.718 153.921 C 317.898 153.801 317.331 153.039 317.451 152.219 Z M 315.224 104.177 L 316.657 103.735 Z M 298.646 56.688 L 300.024 56.095 Z M 225.445 19.139 L 224.525 17.954 Z M 204.036 132.642 L 205.52 132.859 C 205.405 133.647 204.694 134.208 203.901 134.136 C 203.108 134.065 202.509 133.386 202.537 132.59 Z M 191.843 111.806 L 192.997 110.848 Z M 136.215 80.969 L 135.667 79.573 Z M 117.479 122.96 L 118.973 123.095 Z M 138.844 160.381 L 139.519 159.041 C 140.176 159.373 140.496 160.131 140.274 160.833 C 140.052 161.534 139.354 161.971 138.627 161.865 Z M 119.972 148.995 L 119.252 150.312 Z M 98.28 139.857 L 97.65 141.219 L 97.65 141.219 Z M 37.138 142.177 L 35.663 141.901 Z M 40.729 173.684 L 42.015 172.912 L 42.015 172.912 Z M 95.201 234.504 L 94.161 235.585 Z M 132.765 263.111 L 133.469 261.787 L 133.469 261.787 Z M 144.519 269.901 L 143.723 271.173 Z M 159.077 279.429 L 159.935 278.198 C 160.506 278.596 160.728 279.334 160.472 279.981 C 160.216 280.628 159.549 281.014 158.86 280.913 Z M 64.31 292.278 L 64.86 293.674 L 64.86 293.674 Z M 44.486 313.205 L 45.818 313.895 Z M 42.13 345.753 L 43.392 344.942 Z M 63.545 369.103 L 62.728 370.361 L 62.728 370.361 Z M 126.665 381.627 L 126.785 383.122 Z M 162.348 377.037 C 163.168 377.157 163.735 377.919 163.615 378.739 C 163.495 379.558 162.733 380.126 161.914 380.006 Z M 243.324 424.667 L 241.987 423.986 C 242.32 423.332 243.079 423.015 243.779 423.237 C 244.479 423.46 244.915 424.157 244.808 424.884 Z M 228.324 537.947 L 226.825 537.999 Z M 278.851 579.303 L 278.348 577.89 Z M 318.713 521.434 L 317.279 520.993 L 317.279 520.993 Z M 333.264 482.558 L 331.793 482.267 L 331.793 482.267 Z M 343.375 454.216 L 342.906 452.792 C 343.4 452.629 343.943 452.733 344.341 453.068 C 344.739 453.402 344.935 453.919 344.86 454.433 Z M 360.271 512.521 L 358.959 513.248 Z M 390.737 556.243 L 389.533 557.139 Z M 454.623 575.365 L 453.83 574.092 Z M 474.233 507.574 L 472.741 507.724 L 472.741 507.724 Z M 463.4 471.778 L 461.976 472.247 Z M 447.729 444.137 L 446.465 444.944 L 448.834 443.122 Z M 480.588 479.432 L 479.506 480.47 Z M 553.551 474.451 L 552.123 473.993 L 552.123 473.993 Z M 554.656 449.347 L 553.231 449.817 Z M 537.794 417.39 L 538.997 416.494 L 538.997 416.494 Z M 514.563 397.258 L 513.569 398.381 Z M 514.485 397.189 L 513.491 398.312 L 513.491 398.312 Z M 496.325 387.159 C 495.506 387.039 494.938 386.277 495.058 385.458 C 495.178 384.638 495.94 384.071 496.76 384.191 Z M 562.99 388.077 L 562.383 386.705 Z M 576.208 333.132 L 577.625 332.642 Z M 559.281 314.43 L 560.411 313.445 L 560.412 313.445 Z M 534.381 300.446 L 534.689 298.978 Z M 90.008 432.209 L 91.429 432.691 Z M 117.099 518.743 L 117.469 517.289 L 117.469 517.289 Z M 117.346 518.805 L 117.715 517.351 L 117.715 517.351 Z M 159.315 518.193 L 158.583 516.883 Z M 193.749 492.876 L 194.78 493.965 Z M 221.278 458.31 L 222.505 459.174 Z M 485.191 303.82 C 488.624 301.752 493.172 299.89 497.462 298.04 C 501.837 296.154 505.951 294.276 508.826 292.136 L 510.617 294.542 C 507.416 296.926 502.974 298.931 498.65 300.795 C 494.242 302.696 489.95 304.455 486.739 306.39 Z M 508.826 292.136 C 510.192 291.118 511.748 290.065 513.334 288.989 C 514.932 287.906 516.571 286.794 518.153 285.633 C 521.344 283.29 524.146 280.851 525.785 278.257 L 528.321 279.86 C 526.364 282.957 523.17 285.671 519.929 288.051 C 518.294 289.251 516.608 290.394 515.018 291.472 C 513.416 292.558 511.92 293.572 510.617 294.542 Z M 525.785 278.257 C 526.946 276.42 528.965 274.808 530.885 273.439 C 532.938 271.976 534.809 270.829 536.27 269.674 L 538.13 272.028 C 536.626 273.217 534.412 274.609 532.626 275.882 C 530.708 277.249 529.137 278.569 528.321 279.86 Z M 536.27 269.674 C 537.21 268.932 538.029 267.828 539.052 266.513 C 539.998 265.299 541.145 263.868 542.62 263.005 L 544.135 265.594 C 543.231 266.123 542.409 267.085 541.419 268.356 C 540.508 269.527 539.427 271.004 538.13 272.028 Z M 542.62 263.005 C 544.892 261.676 547.609 258.793 550.266 255.47 C 552.885 252.193 555.302 248.678 557.008 246.232 L 559.469 247.948 C 557.781 250.368 555.303 253.974 552.609 257.344 C 549.951 260.668 546.934 263.956 544.135 265.594 Z M 557.008 246.232 C 565.265 234.39 570.044 219.454 572.138 205.137 L 575.107 205.572 C 572.967 220.192 568.07 235.613 559.469 247.948 Z M 572.138 205.137 C 573.057 198.857 573.211 192.66 573.333 186.862 L 576.332 186.925 C 576.211 192.71 576.056 199.082 575.107 205.572 Z M 573.333 186.862 C 573.387 184.284 571.981 181.896 569.855 179.407 C 568.802 178.175 567.642 176.994 566.477 175.778 C 565.333 174.585 564.181 173.355 563.25 172.105 L 565.656 170.313 C 566.463 171.396 567.494 172.504 568.642 173.702 C 569.769 174.878 571.012 176.142 572.136 177.459 C 574.364 180.066 576.41 183.187 576.332 186.925 Z M 563.25 172.105 C 559.713 167.356 553.435 162.864 546.396 159.802 C 539.354 156.74 531.794 155.216 525.767 156.146 L 525.309 153.182 C 532.096 152.133 540.252 153.859 547.593 157.051 C 554.938 160.246 561.71 165.015 565.656 170.313 Z M 525.767 156.146 C 507.4 158.983 489.314 169.058 474.607 180.011 L 472.815 177.605 C 487.696 166.523 506.247 156.125 525.309 153.182 Z M 474.607 180.011 C 468.226 184.763 461.483 188.911 454.749 192.932 C 447.996 196.965 441.275 200.858 434.838 205.145 L 433.175 202.648 C 439.691 198.308 446.507 194.36 453.211 190.357 C 459.933 186.342 466.565 182.259 472.815 177.605 Z M 434.838 205.145 C 433.199 206.237 430.619 207.438 427.798 208.702 C 424.923 209.989 421.719 211.374 418.66 212.872 C 415.596 214.372 412.769 215.942 410.659 217.565 C 408.488 219.235 407.38 220.732 407.193 222.008 L 404.224 221.574 C 404.59 219.074 406.538 216.95 408.83 215.187 C 411.183 213.378 414.226 211.703 417.341 210.177 C 420.461 208.65 423.745 207.229 426.571 205.964 C 429.451 204.674 431.785 203.574 433.175 202.648 Z M 404.224 221.574 C 406.561 205.607 412.128 190.757 417.619 176.119 C 423.128 161.432 428.559 146.962 430.817 131.529 L 433.786 131.964 C 431.473 147.767 425.917 162.537 420.427 177.173 C 414.919 191.857 409.475 206.411 407.193 222.008 Z M 430.817 131.529 C 431.64 125.908 432.851 120.199 434.056 114.507 C 435.265 108.799 436.467 103.105 437.296 97.437 L 440.265 97.871 C 439.419 103.649 438.196 109.435 436.991 115.129 C 435.782 120.839 434.592 126.453 433.786 131.964 Z M 437.296 97.437 C 438.199 91.268 439.235 86.55 438.875 82.318 C 438.534 78.303 436.915 74.763 432.226 71.181 L 434.047 68.797 C 439.367 72.862 441.447 77.156 441.865 82.064 C 442.263 86.753 441.117 92.044 440.265 97.871 Z M 432.226 71.181 C 428.806 68.569 424.287 67.46 419.351 67.001 C 414.353 66.536 409.366 66.754 404.725 66.593 L 404.828 63.595 C 409.117 63.744 414.556 63.542 419.629 64.013 C 424.763 64.491 429.959 65.674 434.047 68.797 Z M 404.725 66.593 C 398.258 66.369 390.989 69.844 383.888 74.541 C 376.786 79.24 370.305 84.832 365.119 88.694 L 363.327 86.288 C 368.244 82.626 375.07 76.778 382.233 72.039 C 389.399 67.298 397.355 63.336 404.828 63.595 Z M 365.119 88.694 C 359.916 92.569 355.39 98.344 351.154 104.645 C 349.042 107.787 347.024 111.025 345.036 114.197 C 343.054 117.358 341.099 120.455 339.138 123.267 L 336.677 121.551 C 338.59 118.807 340.508 115.77 342.494 112.603 C 344.474 109.446 346.52 106.162 348.664 102.971 C 352.942 96.608 357.699 90.479 363.327 86.288 Z M 339.138 123.267 C 337.394 125.768 335.805 128.426 334.158 131.122 C 332.523 133.797 330.835 136.498 328.939 138.98 L 326.555 137.159 C 328.347 134.813 329.963 132.231 331.598 129.557 C 333.22 126.903 334.868 124.146 336.677 121.551 Z M 328.939 138.98 C 327.707 140.593 325.676 143.196 323.879 145.869 C 322.981 147.204 322.159 148.531 321.534 149.736 C 320.894 150.969 320.52 151.961 320.419 152.654 L 317.451 152.219 C 317.626 151.021 318.188 149.67 318.871 148.354 C 319.569 147.009 320.458 145.579 321.389 144.195 C 323.25 141.428 325.348 138.738 326.555 137.159 Z M 317.451 152.219 C 319.955 135.103 318.926 121.273 313.79 104.619 L 316.657 103.735 C 321.925 120.819 322.988 135.099 320.419 152.654 Z M 313.79 104.619 C 308.951 88.929 303.742 72.325 297.268 57.281 L 300.024 56.095 C 306.571 71.309 311.823 88.061 316.657 103.735 Z M 297.268 57.281 C 293.021 47.412 289.077 36.306 283.132 27.118 C 277.235 18.006 269.517 11.033 257.861 9.327 L 258.296 6.359 C 271.099 8.232 279.473 15.942 285.65 25.488 C 291.778 34.958 295.889 46.486 300.024 56.096 Z M 257.861 9.327 C 246.925 7.727 235.303 13.391 226.364 20.324 L 224.525 17.954 C 233.677 10.855 246.136 4.58 258.296 6.359 Z M 226.364 20.324 C 218.598 26.348 215.171 36.304 213.74 46.088 L 210.772 45.654 C 212.241 35.613 215.834 24.695 224.525 17.954 Z M 213.74 46.088 L 208.566 81.448 L 205.598 81.014 L 210.772 45.654 Z M 208.566 81.448 C 207.436 89.173 207.237 98.083 207.043 107.079 C 206.85 116.025 206.661 125.061 205.52 132.859 L 202.552 132.425 C 203.661 124.847 203.849 116.012 204.043 107.014 C 204.237 98.066 204.436 88.958 205.598 81.014 Z M 202.537 132.59 C 202.546 132.32 202.476 131.849 202.249 131.148 C 202.029 130.469 201.694 129.667 201.259 128.768 C 200.39 126.97 199.174 124.887 197.841 122.793 C 195.174 118.601 192.126 114.496 190.688 112.764 L 192.997 110.848 C 194.526 112.69 197.648 116.9 200.372 121.182 C 201.735 123.324 203.02 125.517 203.96 127.462 C 204.43 128.434 204.826 129.37 205.103 130.224 C 205.372 131.056 205.562 131.913 205.535 132.694 Z M 190.688 112.764 C 189.504 111.336 188.294 109.807 187.067 108.261 C 185.836 106.71 184.584 105.138 183.3 103.603 C 180.724 100.524 178.06 97.648 175.259 95.453 L 177.109 93.092 C 180.159 95.48 182.981 98.547 185.601 101.678 C 186.913 103.247 188.187 104.846 189.417 106.396 C 190.651 107.951 191.838 109.451 192.997 110.848 Z M 175.259 95.453 C 169.443 90.898 163.579 86.149 157.214 83.264 C 150.927 80.414 144.244 79.43 136.762 82.366 L 135.667 79.573 C 144.07 76.276 151.608 77.429 158.452 80.532 C 165.219 83.599 171.397 88.618 177.109 93.092 Z M 136.762 82.366 C 129.811 85.093 125.661 91.488 123.087 99.27 C 120.517 107.043 119.622 115.894 118.973 123.095 L 115.986 122.826 C 116.631 115.654 117.545 106.474 120.239 98.328 C 122.93 90.19 127.501 82.776 135.667 79.573 Z M 118.973 123.095 C 118.477 128.607 120.974 136.29 125.058 143.38 C 129.138 150.464 134.565 156.543 139.519 159.041 L 138.168 161.72 C 132.455 158.839 126.662 152.176 122.459 144.878 C 118.259 137.586 115.407 129.249 115.986 122.826 Z M 138.627 161.865 C 134.385 161.244 131.089 159.117 128.113 156.824 C 125.057 154.47 122.46 152.064 119.252 150.312 L 120.691 147.679 C 124.173 149.581 127.162 152.305 129.944 154.448 C 132.806 156.653 135.6 158.39 139.061 158.896 Z M 119.252 150.312 C 115.8 148.426 112.246 146.998 108.613 145.615 C 105.006 144.242 101.287 142.901 97.65 141.219 L 98.91 138.496 C 102.424 140.122 106.004 141.412 109.681 142.812 C 113.332 144.202 117.048 145.689 120.691 147.679 Z M 97.65 141.219 C 92.786 138.968 85.263 137.646 79.67 136.828 L 80.105 133.86 C 85.643 134.67 93.591 136.035 98.91 138.496 Z M 79.67 136.828 C 76.354 136.343 73.291 135.509 70.312 134.702 C 67.311 133.889 64.391 133.101 61.231 132.639 L 61.665 129.67 C 65.029 130.163 68.116 130.999 71.096 131.807 C 74.099 132.62 76.994 133.404 80.105 133.86 Z M 61.231 132.639 C 56.169 131.898 50.954 131.618 46.78 132.913 C 44.722 133.551 42.958 134.56 41.581 136.056 C 40.208 137.548 39.146 139.604 38.612 142.453 L 35.663 141.901 C 36.285 138.582 37.566 135.989 39.374 134.024 C 41.179 132.064 43.436 130.809 45.892 130.047 C 50.746 128.542 56.53 128.919 61.665 129.67 Z M 38.612 142.453 C 36.609 153.143 36.523 163.76 42.015 172.912 L 39.443 174.456 C 33.387 164.364 33.611 152.852 35.663 141.901 Z M 42.015 172.912 C 56.071 196.337 76.329 214.287 96.24 233.422 L 94.161 235.585 C 74.391 216.586 53.756 198.31 39.443 174.456 Z M 96.24 233.422 C 106.917 243.683 120.557 254.928 133.469 261.787 L 132.061 264.436 C 118.796 257.39 104.925 245.929 94.161 235.585 Z M 133.469 261.787 C 139.308 264.889 140.033 265.327 145.314 268.629 L 143.723 271.173 C 138.497 267.905 137.833 267.502 132.061 264.436 Z M 145.314 268.629 C 150.364 271.787 155.573 275.156 159.935 278.198 L 158.219 280.659 C 153.915 277.657 148.753 274.318 143.723 271.173 Z M 158.86 280.913 C 125.714 276.063 96.016 281.371 64.86 293.674 L 63.759 290.883 C 95.282 278.436 125.515 273.002 159.295 277.945 Z M 64.86 293.674 C 56.747 296.877 50.019 305.784 45.818 313.895 L 43.154 312.515 C 47.436 304.248 54.594 294.502 63.759 290.883 Z M 45.818 313.895 C 43.779 317.831 41.867 323.657 41.143 329.528 C 40.413 335.447 40.927 341.105 43.392 344.942 L 40.868 346.563 C 37.836 341.845 37.405 335.328 38.166 329.161 C 38.932 322.947 40.947 316.777 43.154 312.515 Z M 43.392 344.942 C 49.584 354.581 54.897 361.697 64.362 367.845 L 62.728 370.361 C 52.72 363.861 47.128 356.308 40.868 346.563 Z M 64.362 367.845 C 68.239 370.362 73.459 372.267 79.006 373.722 C 84.533 375.172 90.282 376.152 95.157 376.865 L 94.723 379.833 C 89.804 379.114 83.929 378.116 78.245 376.624 C 72.579 375.137 66.999 373.135 62.728 370.361 Z M 95.157 376.865 C 105.799 378.422 116.422 380.949 126.544 380.132 L 126.785 383.122 C 116.213 383.976 104.984 381.335 94.723 379.833 Z M 126.544 380.132 C 130.354 379.824 136.346 378.647 143.113 377.721 L 143.52 380.693 C 137.064 381.577 130.674 382.808 126.785 383.122 Z M 143.113 377.721 C 149.59 376.833 156.645 376.203 162.348 377.037 L 161.914 380.006 C 156.666 379.238 149.979 379.808 143.52 380.693 Z M 244.808 424.884 C 242.068 443.615 237.966 462.602 234.756 481.393 C 231.533 500.258 229.173 519.096 229.823 537.895 L 226.825 537.999 C 226.164 518.895 228.564 499.822 231.798 480.887 C 235.046 461.878 239.1 443.176 241.84 424.45 Z M 229.823 537.895 C 230.222 549.427 236.351 561.632 245.469 569.854 C 254.569 578.058 266.432 582.127 278.348 577.89 L 279.353 580.716 C 266.115 585.423 253.128 580.799 243.461 572.082 C 233.812 563.382 227.255 550.438 226.825 537.999 Z M 278.348 577.89 C 289.336 573.983 297.42 565.212 303.607 554.602 C 309.793 543.992 313.991 531.702 317.279 520.993 L 320.147 521.874 C 316.849 532.614 312.57 545.186 306.199 556.113 C 299.828 567.038 291.274 576.478 279.353 580.716 Z M 317.279 520.993 C 319.335 514.297 322.358 507.831 325.136 501.49 C 327.933 495.103 330.499 488.81 331.793 482.267 L 334.736 482.849 C 333.373 489.741 330.686 496.296 327.884 502.693 C 325.062 509.136 322.138 515.389 320.147 521.874 Z M 331.793 482.267 C 332.243 479.993 334.005 473.108 336.042 466.671 C 337.062 463.45 338.164 460.295 339.222 457.863 C 339.748 456.652 340.284 455.573 340.814 454.743 C 341.078 454.328 341.365 453.938 341.675 453.616 C 341.969 453.31 342.378 452.965 342.906 452.792 L 343.845 455.641 C 343.982 455.596 343.976 455.551 343.837 455.696 C 343.712 455.825 343.546 456.038 343.342 456.357 C 342.935 456.994 342.473 457.909 341.973 459.059 C 340.977 461.35 339.911 464.39 338.903 467.576 C 336.885 473.951 335.157 480.721 334.736 482.849 Z M 344.86 454.433 C 343.536 463.481 345.421 473.715 348.824 483.804 C 352.22 493.872 357.083 503.669 361.583 511.794 L 358.959 513.248 C 354.416 505.046 349.458 495.073 345.981 484.762 C 342.51 474.472 340.469 463.718 341.891 453.999 Z M 361.583 511.794 C 370.248 527.439 381.261 541.009 391.94 555.347 L 389.533 557.139 C 378.955 542.935 367.751 529.123 358.959 513.248 Z M 391.94 555.347 C 398.738 564.477 408.972 572.495 420.155 576.545 C 431.318 580.588 443.307 580.645 453.83 574.092 L 455.416 576.639 C 443.924 583.795 430.93 583.638 419.134 579.366 C 407.357 575.101 396.656 566.703 389.533 557.139 Z M 453.83 574.092 C 464.673 567.339 470.001 556.714 472.32 544.728 C 474.646 532.711 473.916 519.469 472.741 507.724 L 475.726 507.425 C 476.905 519.215 477.679 532.825 475.266 545.298 C 472.846 557.802 467.192 569.305 455.416 576.639 Z M 472.741 507.724 C 472.142 501.741 470.435 495.822 468.372 489.901 C 466.351 484.1 463.873 478.005 461.976 472.247 L 464.825 471.308 C 466.75 477.149 469.073 482.796 471.205 488.915 C 473.295 494.914 475.093 501.094 475.726 507.425 Z M 461.976 472.247 C 461.497 470.794 460.317 468.377 458.745 465.479 C 457.191 462.614 455.31 459.379 453.488 456.331 C 451.667 453.286 449.91 450.438 448.609 448.351 C 447.958 447.308 447.422 446.455 447.048 445.864 C 446.861 445.568 446.715 445.337 446.616 445.181 C 446.566 445.103 446.529 445.043 446.503 445.004 C 446.49 444.984 446.481 444.968 446.474 444.958 C 446.471 444.953 446.469 444.95 446.467 444.947 C 446.466 444.946 446.466 444.945 446.465 444.945 C 446.465 444.944 446.465 444.944 446.465 444.944 C 446.465 444.944 446.465 444.944 447.729 444.137 C 448.994 443.33 448.994 443.33 448.994 443.33 C 448.994 443.33 448.994 443.33 448.994 443.331 C 448.995 443.331 448.996 443.332 448.996 443.334 C 448.998 443.336 449.001 443.34 449.004 443.346 C 449.011 443.356 449.021 443.372 449.034 443.392 C 449.06 443.433 449.098 443.493 449.148 443.573 C 449.249 443.731 449.396 443.963 449.584 444.261 C 449.961 444.857 450.501 445.714 451.155 446.763 C 452.463 448.861 454.229 451.725 456.063 454.792 C 457.895 457.856 459.8 461.131 461.382 464.048 C 462.946 466.932 464.251 469.567 464.825 471.308 Z M 447.729 444.137 C 448.834 443.122 448.834 443.122 448.834 443.122 L 448.835 443.123 C 448.836 443.124 448.837 443.125 448.838 443.126 C 448.841 443.129 448.845 443.134 448.85 443.14 C 448.861 443.151 448.877 443.169 448.899 443.192 C 448.941 443.239 449.005 443.308 449.089 443.399 C 449.255 443.58 449.502 443.848 449.819 444.193 C 450.453 444.883 451.371 445.88 452.504 447.11 C 454.772 449.572 457.904 452.966 461.36 456.699 C 468.276 464.168 476.482 472.983 481.671 478.394 L 479.506 480.47 C 474.296 475.038 466.073 466.205 459.159 458.737 C 455.7 455.002 452.567 451.606 450.298 449.143 C 449.164 447.912 448.245 446.914 447.611 446.224 C 447.293 445.879 447.047 445.611 446.88 445.429 C 446.796 445.338 446.732 445.269 446.69 445.222 C 446.668 445.199 446.652 445.181 446.641 445.169 C 446.636 445.163 446.632 445.159 446.629 445.156 C 446.627 445.154 446.626 445.153 446.626 445.152 C 446.625 445.152 446.625 445.152 446.625 445.152 C 446.625 445.151 446.625 445.151 447.729 444.137 Z M 481.671 478.394 C 488.628 485.648 500.082 492.034 509.848 493.463 L 509.413 496.431 C 498.904 494.894 486.863 488.142 479.506 480.47 Z M 509.848 493.463 C 518.387 494.712 527.592 494.261 535.337 491.276 C 543.039 488.307 549.282 482.849 552.123 473.993 L 554.979 474.909 C 551.815 484.772 544.814 490.838 536.416 494.075 C 528.062 497.295 518.308 497.733 509.413 496.431 Z M 552.123 473.993 C 553.697 469.085 554.728 465.409 555 461.78 C 555.268 458.193 554.798 454.571 553.231 449.817 L 556.081 448.878 C 557.743 453.922 558.295 457.944 557.991 462.004 C 557.69 466.023 556.554 470 554.979 474.909 Z M 553.231 449.817 C 549.428 438.276 543.865 428.053 536.591 418.286 L 538.997 416.494 C 546.44 426.488 552.164 436.995 556.081 448.878 Z M 536.591 418.286 C 533.502 414.138 529.772 410.929 525.78 407.866 C 521.836 404.84 517.518 401.875 513.569 398.381 L 515.557 396.135 C 519.405 399.539 523.489 402.327 527.606 405.486 C 531.673 408.606 535.661 412.014 538.997 416.494 Z M 513.569 398.381 L 513.491 398.312 L 515.479 396.065 L 515.557 396.135 Z M 513.491 398.312 C 511.213 396.297 508.261 393.686 505.155 391.471 C 502.006 389.224 498.903 387.536 496.325 387.159 L 496.76 384.191 C 500.089 384.678 503.686 386.738 506.897 389.028 C 510.151 391.349 513.216 394.063 515.479 396.065 Z M 496.76 384.191 C 503.404 385.163 509.972 386.707 516.457 388.232 C 522.964 389.762 529.387 391.273 535.843 392.217 L 535.409 395.186 C 528.804 394.219 522.255 392.678 515.771 391.153 C 509.265 389.623 502.822 388.11 496.325 387.159 Z M 535.843 392.217 C 541.521 393.048 545.505 392.813 549.335 391.838 C 553.236 390.845 557.014 389.081 562.383 386.705 L 563.597 389.449 C 558.348 391.771 554.283 393.674 550.075 394.745 C 545.797 395.835 541.407 396.063 535.409 395.186 Z M 562.383 386.705 C 565.836 385.177 568.684 382.065 570.932 377.848 C 573.175 373.639 574.754 368.446 575.721 362.974 C 577.663 351.984 577.079 340.236 574.79 333.623 L 577.625 332.642 C 580.133 339.889 580.674 352.189 578.675 363.496 C 577.672 369.172 576.014 374.689 573.579 379.258 C 571.149 383.819 567.878 387.554 563.597 389.449 Z M 574.79 333.623 C 573.569 330.094 570.833 327.065 567.593 324.109 C 565.969 322.628 564.314 321.246 562.664 319.8 C 561.045 318.379 559.468 316.928 558.15 315.416 L 560.412 313.445 C 561.592 314.798 563.042 316.141 564.642 317.544 C 566.213 318.921 567.97 320.392 569.615 321.893 C 572.913 324.902 576.143 328.358 577.625 332.642 Z M 558.15 315.416 C 551.767 308.094 543.04 303.791 534.074 301.914 L 534.689 298.978 C 544.152 300.959 553.513 305.531 560.411 313.445 Z M 534.074 301.914 C 525.196 300.055 518.108 299.476 510.872 300.208 C 503.62 300.941 496.141 303 486.478 306.515 L 485.452 303.695 C 495.213 300.145 502.96 297.993 510.57 297.223 C 518.196 296.451 525.605 297.075 534.689 298.978 Z M 161.914 380.006 C 155.593 379.081 149.475 379.38 143.641 380.671 L 142.992 377.742 C 149.169 376.375 155.654 376.058 162.348 377.037 Z M 143.641 380.671 C 119.092 386.104 99.412 409.176 91.429 432.691 L 88.588 431.727 C 96.788 407.574 117.1 383.473 142.992 377.742 Z M 91.429 432.691 C 86.973 445.813 85.272 465.014 88.876 481.954 C 92.483 498.91 101.283 513.175 117.469 517.289 L 116.73 520.196 C 98.943 515.676 89.657 500.045 85.942 482.578 C 82.223 465.097 83.963 445.348 88.588 431.727 Z M 117.469 517.289 L 117.715 517.351 L 116.976 520.259 L 116.73 520.196 Z M 117.715 517.351 C 132.3 521.058 145.311 524.305 158.583 516.883 L 160.047 519.502 C 145.58 527.591 131.379 523.92 116.976 520.259 Z M 158.583 516.883 C 171.471 509.678 182.028 501.917 192.717 491.788 L 194.78 493.965 C 183.91 504.266 173.152 512.175 160.047 519.502 Z M 192.717 491.788 C 202.947 482.093 211.78 469.185 220.052 457.446 L 222.505 459.174 C 214.297 470.821 205.277 484.019 194.78 493.965 Z M 220.052 457.446 C 227.495 446.885 236.437 434.893 241.987 423.986 L 244.661 425.347 C 238.984 436.502 229.856 448.741 222.505 459.174 Z" fill="#FD1E1F"></path><path d="M 300.276 341.911 C 297.52 339.308 290.094 335.49 285.766 329.381 C 272.94 311.277 282.836 282.188 295.587 273.422 C 300.919 269.756 305.279 266.651 311.117 263.871 C 316.139 261.48 321.603 262.15 327.035 262.15 C 341.656 262.15 358.63 271.719 368.808 281.897 C 378.109 291.198 386.232 303.309 386.232 316.744 C 386.232 323.394 386.167 328.531 383.134 334.598 C 381.238 338.391 377.926 342.15 374.573 344.665 C 370.705 347.566 367.694 351.671 363.603 354.301 C 357.719 358.084 351.765 357.399 345.061 357.399 C 334.589 357.399 324.53 354.316 315.032 350.042 C 310.132 347.837 304.216 345.632 300.276 341.911 Z" fill="#F6F5F1" stroke-width="3px" stroke="#FFFFFF" stroke-linecap="round" stroke-miterlimit="10" stroke-dasharray=""></path></svg></defs><use href="#svg11349182076"></use></svg>