<svg xmlns:xlink="http://www.w3.org/1999/xlink" xmlns="http://www.w3.org/2000/svg" style="width:100%;height:100%;" viewBox="0 0 240 240" preserveAspectRatio="none" width="240" height="240"><defs><svg width="240" height="240" viewBox="0 0 240 240" fill="none" id="svg86897711_9201">
<path d="M105.625 154.82C103.839 161.754 103.285 167.701 100.989 174.429C99.0834 180.012 98.48 184.691 96.8911 190.336C95.2696 196.098 93.1441 201.687 91.6405 207.524C90.5538 211.742 91.1804 217.893 93.8233 221.414C95.7563 223.989 97.612 227.236 100.971 228.102L101.032 228.117C104.438 228.995 107.659 229.825 111.151 229.581C114.022 229.381 117.594 229.453 120.235 228.309C122.325 227.403 124.571 226.358 126.889 226.526C130.063 226.755 133.522 227.023 136.615 227.819C139.303 228.512 141.916 228.617 144.4 227.15C150.834 223.352 153.742 214.507 154.013 207.406C154.454 195.823 150.185 186.107 145.27 175.937C142.331 169.855 140.366 162.122 135.326 157.739C138.775 160.473 141.781 163.85 145.087 166.818C148.233 169.643 151.057 171.476 153.789 174.634C155.349 176.437 157.397 178.597 158.401 180.783C159.285 182.71 161.143 184.168 162.299 185.971C164.772 189.825 169.16 193.393 172.881 196.012C176.219 198.362 179.938 199.144 183.908 199.173C187.588 199.199 192.31 199.348 194.925 196.341C197.356 193.546 198.355 189.659 199.872 186.368C202.243 181.225 202.148 174.71 206.492 170.608C211.419 165.955 218.94 162.73 222.335 156.675C226.635 149.002 217.636 142.642 212.151 139.055C201.615 132.163 188.125 131.32 176.09 128.531C173.422 127.912 171.071 127.465 168.786 127.103C171.736 127.377 174.747 127.347 178.509 126.593C183.848 125.524 189.335 124.999 194.46 123.067C199.233 121.268 204.363 120.565 209.119 118.522C212.541 117.052 215.991 115.192 219.197 113.299C220.432 112.571 222.137 111.699 223.093 110.6C223.902 109.67 224.012 108.344 224.647 107.319C226.139 104.913 225.808 101.111 224.047 98.9118L224.008 98.8633C221.61 95.8687 220.039 93.9068 216.337 92.8108C214.435 92.2477 211.15 90.7965 211.23 88.4089C211.305 86.1524 211.374 82.9674 211.934 80.7948C212.769 77.5531 209.191 74.4795 206.975 72.8878C201.278 68.7942 190.319 67.8508 184.208 71.4579C180.444 73.6801 176.455 75.6876 172.46 77.4844C168.142 79.4261 163.366 79.7877 160.075 83.1516C156.554 86.7505 152.565 90.1344 148.695 93.3493C146.906 94.8355 143.191 97.0347 141.175 98.8454C142.986 96.842 144.102 94.1532 145.679 91.9832C147.221 89.8632 148.992 87.6662 150.183 85.3251C151.639 82.465 153.884 80.1969 155.587 77.4814C164.303 63.5857 175.871 49.0852 175.625 31.7321C175.553 26.57 173.866 21.5827 168.463 19.5997C163.137 17.6447 156.938 17.635 151.373 18.0547C147.305 18.3615 143.114 19.1668 139.139 19.9325C136.432 20.4538 133.222 19.8671 130.892 18.3111C128.437 16.6714 126.122 16.0758 123.321 15.3548L123.096 15.2969C121.648 14.9239 117.012 13.9066 115.759 14.8471C115.3 15.1918 113.979 15.1994 113.333 15.4795C111.954 16.0771 110.823 17.2669 109.758 18.2622C107.828 20.067 106.821 22.6443 105.309 24.7059C103.288 27.4635 102.037 31.6409 101.123 34.9209C99.6943 40.05 98.4538 45.273 97.5434 50.5042C96.4248 56.9327 97.0305 63.5105 97.6998 69.9534C98.652 79.1191 98.8046 86.7263 101.687 94.8521C99.6974 91.4304 96.4817 88.397 94.5481 85.1215C92.2358 81.2046 88.5389 77.9415 84.9433 75.1947C80.6244 71.8952 76.1461 68.5125 71.4582 65.777C69.4791 64.6222 67.4021 63.1516 65.2099 62.5215C62.8858 61.8534 60.7386 61.3039 58.3497 60.7543C54.8423 59.9472 49.4507 58.635 45.8486 59.4085C43.1989 59.9775 40.4114 61.1459 38.36 62.9203C37.262 63.8701 36.0939 64.2968 35.291 65.6046C34.4885 66.9116 33.8706 68.3413 33.1194 69.6859C30.6508 74.1049 30.3448 78.5456 26.2604 82.0242C23.8389 84.0866 20.7983 84.845 18.5763 87.3602C16.9362 89.2167 14.8703 92.4837 15.0524 95.0939L15.055 95.1312C15.3076 98.7533 15.4933 101.416 17.2755 104.834C19.8285 109.729 25.4502 113.142 30.1113 115.707C44.7579 123.768 61.1838 126.912 77.1883 131.035C72.6091 131.354 64.4113 132.092 59.7479 133.149C50.6253 135.217 43.0834 140.466 36.0013 146.349C32.1202 149.574 28.0923 153.064 25.174 157.231C22.8856 160.499 18.0307 169.643 22.9777 173.034C25.3367 174.651 28.0748 176.711 29.8509 179.011C31.6269 181.31 31.9003 185.428 32.2335 188.22C32.5501 190.873 31.7175 193.691 32.423 196.27C33.1283 198.849 33.6858 201.129 34.6037 203.69C36.067 207.774 40.1147 210.361 44.5698 209.641C49.5411 208.837 54.0216 206.43 58.2343 203.72C65.2357 199.215 71.4655 193.305 78.3014 188.474C84.7051 183.948 90.2561 179.134 95.0042 172.888C99.2298 167.329 102.36 160.943 105.625 154.82Z" fill="#F32317"></path>
<path d="M105.625 154.82C103.839 161.754 103.285 167.701 100.989 174.429C99.0834 180.012 98.48 184.691 96.8911 190.336C95.2696 196.098 93.1441 201.687 91.6405 207.524C90.5538 211.742 91.1804 217.893 93.8233 221.414C95.7563 223.989 97.612 227.236 100.971 228.102L101.032 228.117C104.438 228.995 107.659 229.825 111.151 229.581C114.022 229.381 117.594 229.453 120.235 228.309C122.325 227.403 124.571 226.358 126.889 226.526C130.063 226.755 133.522 227.023 136.615 227.819C139.303 228.512 141.916 228.617 144.4 227.15C150.834 223.352 153.742 214.507 154.013 207.406C154.454 195.823 150.185 186.107 145.27 175.937C142.331 169.855 140.366 162.122 135.326 157.739C138.775 160.473 141.781 163.85 145.087 166.818C148.233 169.643 151.057 171.476 153.789 174.634C155.349 176.437 157.398 178.597 158.401 180.783C159.285 182.71 161.143 184.168 162.299 185.971C164.772 189.825 169.16 193.393 172.881 196.012C176.219 198.362 179.938 199.144 183.908 199.173C187.588 199.199 192.31 199.348 194.925 196.341C197.356 193.546 198.355 189.659 199.872 186.368C202.243 181.225 202.148 174.71 206.492 170.608C211.419 165.955 218.94 162.73 222.335 156.675C226.635 149.002 217.636 142.642 212.151 139.055C201.615 132.163 188.125 131.32 176.09 128.531C168.019 126.66 162.86 126.357 153.607 125.249C164.395 125.84 169.108 128.476 178.509 126.593C183.848 125.524 189.335 124.999 194.46 123.067C199.233 121.268 204.363 120.565 209.119 118.522C212.541 117.052 215.991 115.192 219.197 113.299C220.432 112.571 222.137 111.699 223.093 110.6C223.902 109.67 224.012 108.344 224.647 107.319C226.139 104.913 225.808 101.111 224.047 98.9118L224.008 98.8633C221.61 95.8687 220.039 93.9068 216.337 92.8108C214.435 92.2477 211.15 90.7965 211.23 88.4089C211.305 86.1524 211.374 82.9674 211.934 80.7948C212.769 77.553 209.191 74.4795 206.975 72.8878C201.278 68.7942 190.319 67.8508 184.208 71.4579C180.444 73.6801 176.455 75.6876 172.46 77.4844C168.142 79.4261 163.366 79.7877 160.075 83.1516C156.554 86.7505 152.565 90.1344 148.695 93.3493C146.651 95.047 142.094 97.6752 140.427 99.5917C142.703 97.5523 143.896 94.4363 145.679 91.9832C147.221 89.8632 148.992 87.6662 150.184 85.3251C151.639 82.465 153.884 80.1969 155.587 77.4814C164.303 63.5857 175.871 49.0852 175.625 31.7321C175.552 26.57 173.866 21.5827 168.463 19.5997C163.137 17.6447 156.938 17.6349 151.373 18.0547C147.305 18.3615 143.114 19.1668 139.139 19.9325C136.432 20.4538 133.222 19.8671 130.892 18.3111C128.371 16.6277 125.999 16.0448 123.096 15.2969C121.648 14.9239 117.012 13.9066 115.759 14.8471C115.3 15.1918 113.979 15.1994 113.333 15.4795C111.954 16.0771 110.823 17.2669 109.758 18.2622C107.828 20.067 106.821 22.6443 105.309 24.7059C103.288 27.4635 102.037 31.6409 101.123 34.9209C99.6943 40.05 98.4538 45.273 97.5434 50.5042C96.4248 56.9327 97.0305 63.5105 97.6998 69.9534C98.7986 80.5304 98.8327 89.032 103.225 98.6501C102.128 93.5425 97.1645 89.5536 94.5481 85.1216C92.2358 81.2046 88.5389 77.9415 84.9433 75.1947C80.6244 71.8953 76.1461 68.5126 71.4582 65.777C69.4791 64.6222 67.4021 63.1516 65.2099 62.5215C62.8858 61.8534 60.7386 61.3039 58.3497 60.7543C54.8423 59.9472 49.4507 58.635 45.8486 59.4085C43.1989 59.9775 40.4114 61.1459 38.36 62.9203C37.262 63.8701 36.0939 64.2968 35.291 65.6046C34.4885 66.9116 33.8706 68.3413 33.1194 69.6859C30.6508 74.1049 30.3448 78.5456 26.2604 82.0242C23.8389 84.0866 20.7983 84.845 18.5763 87.3602C16.9362 89.2167 14.8703 92.4837 15.0524 95.0938L15.055 95.1312C15.3076 98.7533 15.4933 101.416 17.2755 104.834C19.8285 109.729 25.4502 113.142 30.1113 115.707C44.7579 123.768 61.1838 126.912 77.1883 131.035C72.6091 131.354 64.4113 132.092 59.7479 133.149C50.6253 135.217 43.0834 140.466 36.0013 146.349C32.1202 149.574 28.0923 153.064 25.174 157.231C22.8856 160.499 18.0307 169.643 22.9777 173.034C25.3367 174.651 28.0748 176.711 29.8509 179.011C31.6269 181.31 31.9003 185.428 32.2335 188.22C32.5501 190.873 31.7175 193.691 32.423 196.27C33.1283 198.849 33.6858 201.129 34.6037 203.69C36.067 207.774 40.1147 210.361 44.5698 209.641C49.5411 208.837 54.0216 206.43 58.2343 203.72C65.2357 199.215 71.4655 193.305 78.3014 188.474C84.7051 183.948 90.2561 179.134 95.0042 172.888C99.2298 167.329 102.36 160.943 105.625 154.82Z" stroke="#F32317" stroke-width="5.40609px" stroke-linecap="round" stroke-linejoin="round" fill="none"></path>
<path d="M130.031 139.854C133.963 138.502 137.13 137.88 139.103 134.282C140.316 132.069 140.793 130.177 140.945 128.088C141.058 126.523 141.388 125.141 141.292 123.248C141.139 120.217 140.934 118.327 139.392 115.713C136.408 110.654 130.381 109.765 125.921 109.025C121.638 108.314 118.136 107.922 113.848 108.843C111.005 109.454 108.469 110.556 106.179 112.333C102.016 115.563 99.225 122.179 99.9012 127.417C100.804 134.407 107.953 138.202 114.124 139.852C119.78 141.364 124.157 141.875 130.031 139.854Z" fill="#84DEF9" stroke="#84DEF9" stroke-width="5.40609px" stroke-linecap="round"></path>
</svg></defs><use href="#svg86897711_9201"></use></svg>